<?xml version="1.0" encoding="UTF-8" standalone="no"?>
<!DOCTYPE svg PUBLIC "-//W3C//DTD SVG 1.1//EN"
 "http://www.w3.org/Graphics/SVG/1.1/DTD/svg11.dtd">
<!-- Generated by graphviz version 2.40.1 (20161225.0304)
 -->
<!-- Title: lpegNode Pages: 1 -->
<svg width="3188pt" height="531pt"
 viewBox="0.00 0.00 3188.00 530.80" xmlns="http://www.w3.org/2000/svg" xmlns:xlink="http://www.w3.org/1999/xlink">
<g id="graph0" class="graph" transform="scale(1 1) rotate(0) translate(4 526.8001)">
<title>lpegNode</title>
<polygon fill="#ffffff" stroke="transparent" points="-4,4 -4,-526.8001 3184,-526.8001 3184,4 -4,4"/>
<!-- doc_0 -->
<g id="node1" class="node">
<title>doc_0</title>
<ellipse fill="none" stroke="#000000" cx="366" cy="-504.8001" rx="42.1216" ry="18"/>
<text text-anchor="middle" x="366" y="-500.6001" font-family="Helvetica,sans-Serif" font-size="14.00" fill="#000000">doc &#45; 24</text>
</g>
<!-- section_1 -->
<g id="node2" class="node">
<title>section_1</title>
<ellipse fill="none" stroke="#000000" cx="366" cy="-432.8001" rx="55.6456" ry="18"/>
<text text-anchor="middle" x="366" y="-428.6001" font-family="Helvetica,sans-Serif" font-size="14.00" fill="#000000">section: 1&#45;5</text>
</g>
<!-- doc_0&#45;&gt;section_1 -->
<g id="edge1" class="edge">
<title>doc_0&#45;&gt;section_1</title>
<path fill="none" stroke="#000000" stroke-dasharray="5,2" d="M366,-486.6314C366,-478.931 366,-469.7744 366,-461.2167"/>
<polygon fill="#000000" stroke="#000000" points="369.5001,-461.2133 366,-451.2133 362.5001,-461.2134 369.5001,-461.2133"/>
</g>
<!-- header_2 -->
<g id="node3" class="node">
<title>header_2</title>
<ellipse fill="none" stroke="#000000" cx="256" cy="-360.8001" rx="59.5136" ry="18"/>
<text text-anchor="middle" x="256" y="-356.6001" font-family="Helvetica,sans-Serif" font-size="14.00" fill="#000000">1 : Afterward</text>
</g>
<!-- section_1&#45;&gt;header_2 -->
<g id="edge2" class="edge">
<title>section_1&#45;&gt;header_2</title>
<path fill="none" stroke="#000000" stroke-dasharray="5,2" d="M341.3139,-416.6419C325.9947,-406.6148 306.1128,-393.6011 289.3964,-382.6595"/>
<polygon fill="#000000" stroke="#000000" points="291.2682,-379.7016 280.9843,-377.1535 287.4346,-385.5585 291.2682,-379.7016"/>
</g>
<!-- prose_3 -->
<g id="node4" class="node">
<title>prose_3</title>
<ellipse fill="none" stroke="#000000" cx="366" cy="-360.8001" rx="32.4585" ry="18"/>
<text text-anchor="middle" x="366" y="-356.6001" font-family="Helvetica,sans-Serif" font-size="14.00" fill="#000000">prose</text>
</g>
<!-- section_1&#45;&gt;prose_3 -->
<g id="edge3" class="edge">
<title>section_1&#45;&gt;prose_3</title>
<path fill="none" stroke="#000000" stroke-dasharray="5,2" d="M366,-414.6314C366,-406.931 366,-397.7744 366,-389.2167"/>
<polygon fill="#000000" stroke="#000000" points="369.5001,-389.2133 366,-379.2133 362.5001,-389.2134 369.5001,-389.2133"/>
</g>
<!-- section_4 -->
<g id="node5" class="node">
<title>section_4</title>
<ellipse fill="none" stroke="#000000" cx="752" cy="-360.8001" rx="60.9826" ry="18"/>
<text text-anchor="middle" x="752" y="-356.6001" font-family="Helvetica,sans-Serif" font-size="14.00" fill="#000000">section: 6&#45;15</text>
</g>
<!-- section_1&#45;&gt;section_4 -->
<g id="edge4" class="edge">
<title>section_1&#45;&gt;section_4</title>
<path fill="none" stroke="#000000" stroke-dasharray="5,2" d="M414.4963,-423.7541C484.4521,-410.7054 613.6738,-386.6018 690.3253,-372.3042"/>
<polygon fill="#000000" stroke="#000000" points="691.1331,-375.7139 700.3218,-370.4395 689.8495,-368.8326 691.1331,-375.7139"/>
</g>
<!-- leaf_5 -->
<g id="node6" class="node">
<title>leaf_5</title>
<polygon fill="none" stroke="#c0c0c0" points="302.5,-306.8001 209.5,-306.8001 209.5,-270.8001 302.5,-270.8001 302.5,-306.8001"/>
<text text-anchor="middle" x="256" y="-285.3001" font-family="Inconsolata" font-size="14.00" fill="#000000">* Afterward</text>
</g>
<!-- header_2&#45;&gt;leaf_5 -->
<g id="edge5" class="edge">
<title>header_2&#45;&gt;leaf_5</title>
<path fill="none" stroke="#000000" stroke-dasharray="5,2" d="M256,-342.6314C256,-334.931 256,-325.7744 256,-317.2167"/>
<polygon fill="#000000" stroke="#000000" points="259.5001,-317.2133 256,-307.2133 252.5001,-317.2134 259.5001,-317.2133"/>
</g>
<!-- raw_6 -->
<g id="node7" class="node">
<title>raw_6</title>
<ellipse fill="none" stroke="#000000" cx="357" cy="-288.8001" rx="27" ry="18"/>
<text text-anchor="middle" x="357" y="-284.6001" font-family="Helvetica,sans-Serif" font-size="14.00" fill="#000000">raw</text>
</g>
<!-- prose_3&#45;&gt;raw_6 -->
<g id="edge6" class="edge">
<title>prose_3&#45;&gt;raw_6</title>
<path fill="none" stroke="#000000" stroke-dasharray="5,2" d="M363.7289,-342.6314C362.7664,-334.931 361.6218,-325.7744 360.5521,-317.2167"/>
<polygon fill="#000000" stroke="#000000" points="364.0151,-316.702 359.3017,-307.2133 357.0691,-317.5703 364.0151,-316.702"/>
</g>
<!-- header_8 -->
<g id="node9" class="node">
<title>header_8</title>
<ellipse fill="none" stroke="#000000" cx="597" cy="-288.8001" rx="67.2722" ry="18"/>
<text text-anchor="middle" x="597" y="-284.6001" font-family="Helvetica,sans-Serif" font-size="14.00" fill="#000000">2 : br.argparse</text>
</g>
<!-- section_4&#45;&gt;header_8 -->
<g id="edge8" class="edge">
<title>section_4&#45;&gt;header_8</title>
<path fill="none" stroke="#000000" stroke-dasharray="5,2" d="M719.1285,-345.5307C696.0406,-334.806 664.9367,-320.3578 639.8971,-308.7265"/>
<polygon fill="#000000" stroke="#000000" points="641.1705,-305.4589 630.6267,-304.4202 638.2215,-311.8074 641.1705,-305.4589"/>
</g>
<!-- prose_9 -->
<g id="node10" class="node">
<title>prose_9</title>
<ellipse fill="none" stroke="#000000" cx="752" cy="-288.8001" rx="32.4585" ry="18"/>
<text text-anchor="middle" x="752" y="-284.6001" font-family="Helvetica,sans-Serif" font-size="14.00" fill="#000000">prose</text>
</g>
<!-- section_4&#45;&gt;prose_9 -->
<g id="edge9" class="edge">
<title>section_4&#45;&gt;prose_9</title>
<path fill="none" stroke="#000000" stroke-dasharray="5,2" d="M752,-342.6314C752,-334.931 752,-325.7744 752,-317.2167"/>
<polygon fill="#000000" stroke="#000000" points="755.5001,-317.2133 752,-307.2133 748.5001,-317.2134 755.5001,-317.2133"/>
</g>
<!-- prose_10 -->
<g id="node11" class="node">
<title>prose_10</title>
<ellipse fill="none" stroke="#000000" cx="1923" cy="-288.8001" rx="32.4585" ry="18"/>
<text text-anchor="middle" x="1923" y="-284.6001" font-family="Helvetica,sans-Serif" font-size="14.00" fill="#000000">prose</text>
</g>
<!-- section_4&#45;&gt;prose_10 -->
<g id="edge10" class="edge">
<title>section_4&#45;&gt;prose_10</title>
<path fill="none" stroke="#000000" stroke-dasharray="5,2" d="M811.68,-357.1306C1018.6964,-344.402 1702.9179,-302.332 1880.5608,-291.4095"/>
<polygon fill="#000000" stroke="#000000" points="1881.0387,-294.8868 1890.8051,-290.7796 1880.6091,-287.9 1881.0387,-294.8868"/>
</g>
<!-- section_11 -->
<g id="node12" class="node">
<title>section_11</title>
<ellipse fill="none" stroke="#000000" cx="2888" cy="-288.8001" rx="65.8187" ry="18"/>
<text text-anchor="middle" x="2888" y="-284.6001" font-family="Helvetica,sans-Serif" font-size="14.00" fill="#000000">section: 16&#45;24</text>
</g>
<!-- section_4&#45;&gt;section_11 -->
<g id="edge11" class="edge">
<title>section_4&#45;&gt;section_11</title>
<path fill="none" stroke="#000000" stroke-dasharray="5,2" d="M812.4856,-358.7612C1116.4623,-348.5148 2475.989,-302.6881 2812.4818,-291.3456"/>
<polygon fill="#000000" stroke="#000000" points="2812.732,-294.8393 2822.6084,-291.0043 2812.4961,-287.8432 2812.732,-294.8393"/>
</g>
<!-- leaf_7 -->
<g id="node8" class="node">
<title>leaf_7</title>
<polygon fill="none" stroke="#c0c0c0" points="436,-235.0012 0,-235.0012 0,-163.1989 436,-163.1989 436,-235.0012"/>
<text text-anchor="middle" x="218" y="-187.6001" font-family="Inconsolata" font-size="14.00" fill="#000000">Performs cleanup. Does a no&#45;op now to keep the loader clean.</text>
</g>
<!-- raw_6&#45;&gt;leaf_7 -->
<g id="edge7" class="edge">
<title>raw_6&#45;&gt;leaf_7</title>
<path fill="none" stroke="#000000" stroke-dasharray="5,2" d="M337.3795,-276.1385C322.8428,-266.7576 302.1529,-253.4059 282.0712,-240.4467"/>
<polygon fill="#000000" stroke="#000000" points="283.8218,-237.411 273.5217,-234.9295 280.0262,-243.2926 283.8218,-237.411"/>
</g>
<!-- leaf_12 -->
<g id="node13" class="node">
<title>leaf_12</title>
<polygon fill="none" stroke="#c0c0c0" points="568,-217.1 454,-217.1 454,-181.1 568,-181.1 568,-217.1"/>
<text text-anchor="middle" x="511" y="-195.6001" font-family="Inconsolata" font-size="14.00" fill="#000000">** br.argparse</text>
</g>
<!-- header_8&#45;&gt;leaf_12 -->
<g id="edge12" class="edge">
<title>header_8&#45;&gt;leaf_12</title>
<path fill="none" stroke="#000000" stroke-dasharray="5,2" d="M580.0092,-271.0782C567.3369,-257.8608 549.8373,-239.6082 535.6314,-224.7912"/>
<polygon fill="#000000" stroke="#000000" points="537.9931,-222.1971 528.546,-217.4009 532.9402,-227.0415 537.9931,-222.1971"/>
</g>
<!-- raw_13 -->
<g id="node14" class="node">
<title>raw_13</title>
<ellipse fill="none" stroke="#000000" cx="613" cy="-199.1" rx="27" ry="18"/>
<text text-anchor="middle" x="613" y="-194.9" font-family="Helvetica,sans-Serif" font-size="14.00" fill="#000000">raw</text>
</g>
<!-- prose_9&#45;&gt;raw_13 -->
<g id="edge13" class="edge">
<title>prose_9&#45;&gt;raw_13</title>
<path fill="none" stroke="#000000" stroke-dasharray="5,2" d="M726.2146,-277.8954C704.5976,-268.1569 673.4351,-252.6927 649,-234.8001 643.9045,-231.0689 638.8374,-226.6249 634.183,-222.1607"/>
<polygon fill="#000000" stroke="#000000" points="636.3428,-219.3692 626.8074,-214.751 631.3816,-224.3076 636.3428,-219.3692"/>
</g>
<!-- prespace_14 -->
<g id="node15" class="node">
<title>prespace_14</title>
<ellipse fill="none" stroke="#000000" cx="704" cy="-199.1" rx="46.4736" ry="18"/>
<text text-anchor="middle" x="704" y="-194.9" font-family="Helvetica,sans-Serif" font-size="14.00" fill="#000000">prespace</text>
</g>
<!-- prose_9&#45;&gt;prespace_14 -->
<g id="edge14" class="edge">
<title>prose_9&#45;&gt;prespace_14</title>
<path fill="none" stroke="#000000" stroke-dasharray="5,2" d="M742.7451,-271.505C735.8621,-258.6423 726.3373,-240.8429 718.4541,-226.1111"/>
<polygon fill="#000000" stroke="#000000" points="721.3591,-224.1216 713.555,-216.956 715.1872,-227.4243 721.3591,-224.1216"/>
</g>
<!-- literal_15 -->
<g id="node16" class="node">
<title>literal_15</title>
<ellipse fill="none" stroke="#000000" cx="800" cy="-199.1" rx="31.481" ry="18"/>
<text text-anchor="middle" x="800" y="-194.9" font-family="Helvetica,sans-Serif" font-size="14.00" fill="#000000">literal</text>
</g>
<!-- prose_9&#45;&gt;literal_15 -->
<g id="edge15" class="edge">
<title>prose_9&#45;&gt;literal_15</title>
<path fill="none" stroke="#000000" stroke-dasharray="5,2" d="M761.2549,-271.505C768.2273,-258.4753 777.9106,-240.3797 785.8522,-225.5387"/>
<polygon fill="#000000" stroke="#000000" points="789.1413,-226.8104 790.7735,-216.342 782.9694,-223.5077 789.1413,-226.8104"/>
</g>
<!-- raw_16 -->
<g id="node17" class="node">
<title>raw_16</title>
<ellipse fill="none" stroke="#000000" cx="876" cy="-199.1" rx="27" ry="18"/>
<text text-anchor="middle" x="876" y="-194.9" font-family="Helvetica,sans-Serif" font-size="14.00" fill="#000000">raw</text>
</g>
<!-- prose_9&#45;&gt;raw_16 -->
<g id="edge16" class="edge">
<title>prose_9&#45;&gt;raw_16</title>
<path fill="none" stroke="#000000" stroke-dasharray="5,2" d="M775.7576,-276.2022C794.0429,-266.0463 819.56,-250.8544 840,-234.8001 844.9667,-230.8991 849.9772,-226.3804 854.6168,-221.8967"/>
<polygon fill="#000000" stroke="#000000" points="857.4136,-224.0492 862.0017,-214.4993 852.4596,-219.1036 857.4136,-224.0492"/>
</g>
<!-- raw_21 -->
<g id="node22" class="node">
<title>raw_21</title>
<ellipse fill="none" stroke="#000000" cx="1111" cy="-199.1" rx="27" ry="18"/>
<text text-anchor="middle" x="1111" y="-194.9" font-family="Helvetica,sans-Serif" font-size="14.00" fill="#000000">raw</text>
</g>
<!-- prose_10&#45;&gt;raw_21 -->
<g id="edge21" class="edge">
<title>prose_10&#45;&gt;raw_21</title>
<path fill="none" stroke="#000000" stroke-dasharray="5,2" d="M1891.1884,-285.8582C1808.5907,-278.1576 1580.5393,-256.4991 1391,-234.8001 1303.5923,-224.7934 1201.0739,-211.2642 1147.6271,-204.0746"/>
<polygon fill="#000000" stroke="#000000" points="1147.9891,-200.5918 1137.6111,-202.7241 1147.0537,-207.529 1147.9891,-200.5918"/>
</g>
<!-- prespace_22 -->
<g id="node23" class="node">
<title>prespace_22</title>
<ellipse fill="none" stroke="#000000" cx="1446" cy="-199.1" rx="46.4736" ry="18"/>
<text text-anchor="middle" x="1446" y="-194.9" font-family="Helvetica,sans-Serif" font-size="14.00" fill="#000000">prespace</text>
</g>
<!-- prose_10&#45;&gt;prespace_22 -->
<g id="edge22" class="edge">
<title>prose_10&#45;&gt;prespace_22</title>
<path fill="none" stroke="#000000" stroke-dasharray="5,2" d="M1891.972,-283.3993C1837.6199,-273.8934 1721.6751,-253.4134 1624,-234.8001 1581.3082,-226.6646 1532.9651,-216.9358 1497.4443,-209.6904"/>
<polygon fill="#000000" stroke="#000000" points="1497.8161,-206.1941 1487.3178,-207.6213 1496.4147,-213.0524 1497.8161,-206.1941"/>
</g>
<!-- literal_23 -->
<g id="node24" class="node">
<title>literal_23</title>
<ellipse fill="none" stroke="#000000" cx="1664" cy="-199.1" rx="31.481" ry="18"/>
<text text-anchor="middle" x="1664" y="-194.9" font-family="Helvetica,sans-Serif" font-size="14.00" fill="#000000">literal</text>
</g>
<!-- prose_10&#45;&gt;literal_23 -->
<g id="edge23" class="edge">
<title>prose_10&#45;&gt;literal_23</title>
<path fill="none" stroke="#000000" stroke-dasharray="5,2" d="M1895.2846,-279.4253C1863.7125,-268.7233 1810.5898,-250.6475 1765,-234.8001 1743.6083,-227.3641 1719.7145,-218.9246 1700.5393,-212.1188"/>
<polygon fill="#000000" stroke="#000000" points="1701.575,-208.7724 1690.9803,-208.7226 1699.2315,-215.3685 1701.575,-208.7724"/>
</g>
<!-- raw_24 -->
<g id="node25" class="node">
<title>raw_24</title>
<ellipse fill="none" stroke="#000000" cx="1801" cy="-199.1" rx="27" ry="18"/>
<text text-anchor="middle" x="1801" y="-194.9" font-family="Helvetica,sans-Serif" font-size="14.00" fill="#000000">raw</text>
</g>
<!-- prose_10&#45;&gt;raw_24 -->
<g id="edge24" class="edge">
<title>prose_10&#45;&gt;raw_24</title>
<path fill="none" stroke="#000000" stroke-dasharray="5,2" d="M1903.3986,-274.3882C1882.8527,-259.2819 1850.443,-235.4528 1827.598,-218.6561"/>
<polygon fill="#000000" stroke="#000000" points="1829.4854,-215.6996 1819.3554,-212.5958 1825.3388,-221.3393 1829.4854,-215.6996"/>
</g>
<!-- prespace_25 -->
<g id="node26" class="node">
<title>prespace_25</title>
<ellipse fill="none" stroke="#000000" cx="1923" cy="-199.1" rx="46.4736" ry="18"/>
<text text-anchor="middle" x="1923" y="-194.9" font-family="Helvetica,sans-Serif" font-size="14.00" fill="#000000">prespace</text>
</g>
<!-- prose_10&#45;&gt;prespace_25 -->
<g id="edge25" class="edge">
<title>prose_10&#45;&gt;prespace_25</title>
<path fill="none" stroke="#000000" stroke-dasharray="5,2" d="M1923,-270.6479C1923,-258.2465 1923,-241.5633 1923,-227.4264"/>
<polygon fill="#000000" stroke="#000000" points="1926.5001,-227.2252 1923,-217.2252 1919.5001,-227.2252 1926.5001,-227.2252"/>
</g>
<!-- literal_26 -->
<g id="node27" class="node">
<title>literal_26</title>
<ellipse fill="none" stroke="#000000" cx="2019" cy="-199.1" rx="31.481" ry="18"/>
<text text-anchor="middle" x="2019" y="-194.9" font-family="Helvetica,sans-Serif" font-size="14.00" fill="#000000">literal</text>
</g>
<!-- prose_10&#45;&gt;literal_26 -->
<g id="edge26" class="edge">
<title>prose_10&#45;&gt;literal_26</title>
<path fill="none" stroke="#000000" stroke-dasharray="5,2" d="M1939.7219,-273.1755C1955.0019,-258.8983 1977.7719,-237.6226 1994.994,-221.5306"/>
<polygon fill="#000000" stroke="#000000" points="1997.5525,-223.9302 2002.4697,-214.5455 1992.7734,-218.8155 1997.5525,-223.9302"/>
</g>
<!-- raw_27 -->
<g id="node28" class="node">
<title>raw_27</title>
<ellipse fill="none" stroke="#000000" cx="2095" cy="-199.1" rx="27" ry="18"/>
<text text-anchor="middle" x="2095" y="-194.9" font-family="Helvetica,sans-Serif" font-size="14.00" fill="#000000">raw</text>
</g>
<!-- prose_10&#45;&gt;raw_27 -->
<g id="edge27" class="edge">
<title>prose_10&#45;&gt;raw_27</title>
<path fill="none" stroke="#000000" stroke-dasharray="5,2" d="M1952.2236,-280.9452C1980.9259,-272.3956 2025.2039,-256.9224 2059,-234.8001 2064.2841,-231.3412 2069.4341,-227.0168 2074.1101,-222.5838"/>
<polygon fill="#000000" stroke="#000000" points="2076.9194,-224.7213 2081.4721,-215.1544 2071.9471,-219.7941 2076.9194,-224.7213"/>
</g>
<!-- prespace_28 -->
<g id="node29" class="node">
<title>prespace_28</title>
<ellipse fill="none" stroke="#000000" cx="2186" cy="-199.1" rx="46.4736" ry="18"/>
<text text-anchor="middle" x="2186" y="-194.9" font-family="Helvetica,sans-Serif" font-size="14.00" fill="#000000">prespace</text>
</g>
<!-- prose_10&#45;&gt;prespace_28 -->
<g id="edge28" class="edge">
<title>prose_10&#45;&gt;prespace_28</title>
<path fill="none" stroke="#000000" stroke-dasharray="5,2" d="M1954.3476,-283.9066C1995.9905,-276.6876 2071.2493,-261.1164 2131,-234.8001 2139.5534,-231.0328 2148.2775,-226.0101 2156.183,-220.9246"/>
<polygon fill="#000000" stroke="#000000" points="2158.3437,-223.6901 2164.7081,-215.2198 2154.4507,-217.8725 2158.3437,-223.6901"/>
</g>
<!-- literal_29 -->
<g id="node30" class="node">
<title>literal_29</title>
<ellipse fill="none" stroke="#000000" cx="2282" cy="-199.1" rx="31.481" ry="18"/>
<text text-anchor="middle" x="2282" y="-194.9" font-family="Helvetica,sans-Serif" font-size="14.00" fill="#000000">literal</text>
</g>
<!-- prose_10&#45;&gt;literal_29 -->
<g id="edge29" class="edge">
<title>prose_10&#45;&gt;literal_29</title>
<path fill="none" stroke="#000000" stroke-dasharray="5,2" d="M1954.7278,-285.6194C2024.7665,-278.2454 2190.3903,-258.7689 2241,-234.8001 2247.6481,-231.6515 2254.0483,-227.1112 2259.7355,-222.3184"/>
<polygon fill="#000000" stroke="#000000" points="2262.4638,-224.5678 2267.5034,-215.2483 2257.752,-219.391 2262.4638,-224.5678"/>
</g>
<!-- raw_30 -->
<g id="node31" class="node">
<title>raw_30</title>
<ellipse fill="none" stroke="#000000" cx="2441" cy="-199.1" rx="27" ry="18"/>
<text text-anchor="middle" x="2441" y="-194.9" font-family="Helvetica,sans-Serif" font-size="14.00" fill="#000000">raw</text>
</g>
<!-- prose_10&#45;&gt;raw_30 -->
<g id="edge30" class="edge">
<title>prose_10&#45;&gt;raw_30</title>
<path fill="none" stroke="#000000" stroke-dasharray="5,2" d="M1955.1038,-286.1785C2023.2649,-280.2364 2187.2333,-263.946 2322,-234.8001 2351.1459,-228.4967 2383.5173,-218.5898 2407.1303,-210.8099"/>
<polygon fill="#000000" stroke="#000000" points="2408.3017,-214.1088 2416.679,-207.6225 2406.0853,-207.4689 2408.3017,-214.1088"/>
</g>
<!-- header_41 -->
<g id="node42" class="node">
<title>header_41</title>
<ellipse fill="none" stroke="#000000" cx="2812" cy="-199.1" rx="102.5628" ry="18"/>
<text text-anchor="middle" x="2812" y="-194.9" font-family="Helvetica,sans-Serif" font-size="14.00" fill="#000000">3 : Close package.conn</text>
</g>
<!-- section_11&#45;&gt;header_41 -->
<g id="edge41" class="edge">
<title>section_11&#45;&gt;header_41</title>
<path fill="none" stroke="#000000" stroke-dasharray="5,2" d="M2872.9848,-271.0782C2861.8159,-257.8959 2846.4034,-239.7051 2833.8674,-224.9093"/>
<polygon fill="#000000" stroke="#000000" points="2836.3789,-222.4592 2827.2441,-217.0921 2831.0381,-226.9843 2836.3789,-222.4592"/>
</g>
<!-- prose_42 -->
<g id="node43" class="node">
<title>prose_42</title>
<ellipse fill="none" stroke="#000000" cx="2965" cy="-199.1" rx="32.4585" ry="18"/>
<text text-anchor="middle" x="2965" y="-194.9" font-family="Helvetica,sans-Serif" font-size="14.00" fill="#000000">prose</text>
</g>
<!-- section_11&#45;&gt;prose_42 -->
<g id="edge42" class="edge">
<title>section_11&#45;&gt;prose_42</title>
<path fill="none" stroke="#000000" stroke-dasharray="5,2" d="M2903.2127,-271.0782C2914.8985,-257.4651 2931.1691,-238.5108 2944.0805,-223.4699"/>
<polygon fill="#000000" stroke="#000000" points="2946.9996,-225.4428 2950.8574,-215.5753 2941.6881,-220.8833 2946.9996,-225.4428"/>
</g>
<!-- codeblock_43 -->
<g id="node44" class="node">
<title>codeblock_43</title>
<ellipse fill="none" stroke="#000000" cx="3094" cy="-199.1" rx="77.4211" ry="18"/>
<text text-anchor="middle" x="3094" y="-194.9" font-family="Helvetica,sans-Serif" font-size="14.00" fill="#000000">code block 18&#45;22</text>
</g>
<!-- section_11&#45;&gt;codeblock_43 -->
<g id="edge43" class="edge">
<title>section_11&#45;&gt;codeblock_43</title>
<path fill="none" stroke="#000000" stroke-dasharray="5,2" d="M2923.4127,-273.3801C2957.8785,-258.3724 3010.4214,-235.4933 3048.0827,-219.0941"/>
<polygon fill="#000000" stroke="#000000" points="3049.5458,-222.2745 3057.317,-215.0732 3046.7511,-215.8566 3049.5458,-222.2745"/>
</g>
<!-- leaf_17 -->
<g id="node18" class="node">
<title>leaf_17</title>
<polygon fill="none" stroke="#c0c0c0" points="664,-127.6015 214,-127.6015 214,-71.7985 664,-71.7985 664,-127.6015"/>
<text text-anchor="middle" x="439" y="-80.2" font-family="Inconsolata" font-size="14.00" fill="#000000">This is where we&#39;re going to write a proper arg parser for the</text>
</g>
<!-- raw_13&#45;&gt;leaf_17 -->
<g id="edge17" class="edge">
<title>raw_13&#45;&gt;leaf_17</title>
<path fill="none" stroke="#000000" stroke-dasharray="5,2" d="M599.3295,-183.257C593.0011,-176.5579 585.0982,-169.0219 577,-163.4 559.7691,-151.438 539.9331,-140.7628 520.7713,-131.7287"/>
<polygon fill="#000000" stroke="#000000" points="521.9802,-128.4321 511.4331,-127.4271 519.0514,-134.79 521.9802,-128.4321"/>
</g>
<!-- leaf_18 -->
<g id="node19" class="node">
<title>leaf_18</title>
<polygon fill="none" stroke="#c0c0c0" points="736,-117.7 682,-117.7 682,-81.7 736,-81.7 736,-117.7"/>
<text text-anchor="middle" x="709" y="-96.2" font-family="Inconsolata" font-size="14.00" fill="#000000"> </text>
</g>
<!-- prespace_14&#45;&gt;leaf_18 -->
<g id="edge18" class="edge">
<title>prespace_14&#45;&gt;leaf_18</title>
<path fill="none" stroke="#000000" stroke-dasharray="5,2" d="M704.9171,-180.8685C705.6571,-166.1563 706.7116,-145.1942 707.5635,-128.2579"/>
<polygon fill="#000000" stroke="#000000" points="711.0818,-127.9792 708.0887,-117.8159 704.0907,-127.6274 711.0818,-127.9792"/>
</g>
<!-- leaf_19 -->
<g id="node20" class="node">
<title>leaf_19</title>
<polygon fill="none" stroke="#c0c0c0" points="817,-117.7 763,-117.7 763,-81.7 817,-81.7 817,-117.7"/>
<text text-anchor="middle" x="790" y="-96.2" font-family="Inconsolata" font-size="14.00" fill="#000000">br</text>
</g>
<!-- literal_15&#45;&gt;leaf_19 -->
<g id="edge19" class="edge">
<title>literal_15&#45;&gt;leaf_19</title>
<path fill="none" stroke="#000000" stroke-dasharray="5,2" d="M798.1658,-180.8685C796.6716,-166.0162 794.5366,-144.7943 792.8245,-127.7751"/>
<polygon fill="#000000" stroke="#000000" points="796.306,-127.4153 791.8225,-117.8159 789.3412,-128.1161 796.306,-127.4153"/>
</g>
<!-- leaf_20 -->
<g id="node21" class="node">
<title>leaf_20</title>
<polygon fill="none" stroke="#c0c0c0" points="907,-119.0006 835,-119.0006 835,-80.3994 907,-80.3994 907,-119.0006"/>
<text text-anchor="middle" x="871" y="-103.9" font-family="Inconsolata" font-size="14.00" fill="#000000"> command</text>
<text text-anchor="middle" x="871" y="-88.5" font-family="Inconsolata" font-size="14.00" fill="#000000">line.</text>
</g>
<!-- raw_16&#45;&gt;leaf_20 -->
<g id="edge20" class="edge">
<title>raw_16&#45;&gt;leaf_20</title>
<path fill="none" stroke="#000000" stroke-dasharray="5,2" d="M875.0829,-180.8685C874.3614,-166.5241 873.341,-146.2384 872.5008,-129.5355"/>
<polygon fill="#000000" stroke="#000000" points="875.9777,-128.9868 871.9796,-119.1753 868.9865,-129.3385 875.9777,-128.9868"/>
</g>
<!-- leaf_31 -->
<g id="node32" class="node">
<title>leaf_31</title>
<polygon fill="none" stroke="#c0c0c0" points="1235,-119.6021 925,-119.6021 925,-79.7979 1235,-79.7979 1235,-119.6021"/>
<text text-anchor="middle" x="1080" y="-88.2" font-family="Inconsolata" font-size="14.00" fill="#000000">An important assumption I&#39;m making is that</text>
</g>
<!-- raw_21&#45;&gt;leaf_31 -->
<g id="edge31" class="edge">
<title>raw_21&#45;&gt;leaf_31</title>
<path fill="none" stroke="#000000" stroke-dasharray="5,2" d="M1105.4578,-181.3293C1100.987,-166.9937 1094.5993,-146.5119 1089.341,-129.6513"/>
<polygon fill="#000000" stroke="#000000" points="1092.5587,-128.213 1086.2401,-119.7086 1085.8762,-130.2972 1092.5587,-128.213"/>
</g>
<!-- leaf_32 -->
<g id="node33" class="node">
<title>leaf_32</title>
<polygon fill="none" stroke="#c0c0c0" points="1307,-117.7 1253,-117.7 1253,-81.7 1307,-81.7 1307,-117.7"/>
<text text-anchor="middle" x="1280" y="-96.2" font-family="Inconsolata" font-size="14.00" fill="#000000"> </text>
</g>
<!-- prespace_22&#45;&gt;leaf_32 -->
<g id="edge32" class="edge">
<title>prespace_22&#45;&gt;leaf_32</title>
<path fill="none" stroke="#000000" stroke-dasharray="5,2" d="M1417.3845,-184.9115C1390.5508,-171.238 1349.6344,-149.4327 1316,-127.4 1314.3178,-126.2981 1312.6136,-125.1409 1310.9084,-123.9503"/>
<polygon fill="#000000" stroke="#000000" points="1312.6192,-120.867 1302.4717,-117.8209 1308.5048,-126.5302 1312.6192,-120.867"/>
</g>
<!-- leaf_33 -->
<g id="node34" class="node">
<title>leaf_33</title>
<polygon fill="none" stroke="#c0c0c0" points="1397,-117.7 1325,-117.7 1325,-81.7 1397,-81.7 1397,-117.7"/>
<text text-anchor="middle" x="1361" y="-96.2" font-family="Inconsolata" font-size="14.00" fill="#000000">argparse</text>
</g>
<!-- literal_23&#45;&gt;leaf_33 -->
<g id="edge33" class="edge">
<title>literal_23&#45;&gt;leaf_33</title>
<path fill="none" stroke="#000000" stroke-dasharray="5,2" d="M1634.0603,-193.6285C1584.9995,-184.0419 1485.0411,-161.8876 1406,-127.4 1402.973,-126.0793 1399.9074,-124.5822 1396.874,-122.9845"/>
<polygon fill="#000000" stroke="#000000" points="1398.3735,-119.8124 1387.9409,-117.9653 1394.9446,-125.9151 1398.3735,-119.8124"/>
</g>
<!-- leaf_34 -->
<g id="node35" class="node">
<title>leaf_34</title>
<polygon fill="none" stroke="#c0c0c0" points="1949,-126.9005 1415,-126.9005 1415,-72.4996 1949,-72.4996 1949,-126.9005"/>
<text text-anchor="middle" x="1682" y="-111.6001" font-family="Inconsolata" font-size="14.00" fill="#000000"> is non&#45;destructive of</text>
<text text-anchor="middle" x="1682" y="-96.2" font-family="Inconsolata" font-size="14.00" fill="#000000">the command line invocating, such that I can pop a module&#45;level invocation</text>
<text text-anchor="middle" x="1682" y="-80.8" font-family="Inconsolata" font-size="14.00" fill="#000000">such as</text>
</g>
<!-- raw_24&#45;&gt;leaf_34 -->
<g id="edge34" class="edge">
<title>raw_24&#45;&gt;leaf_34</title>
<path fill="none" stroke="#000000" stroke-dasharray="5,2" d="M1783.9502,-184.8584C1767.994,-171.5303 1743.5391,-151.1033 1722.5802,-133.5964"/>
<polygon fill="#000000" stroke="#000000" points="1724.6622,-130.7751 1714.7436,-127.0506 1720.1747,-136.1475 1724.6622,-130.7751"/>
</g>
<!-- leaf_35 -->
<g id="node36" class="node">
<title>leaf_35</title>
<polygon fill="none" stroke="#c0c0c0" points="2021,-117.7 1967,-117.7 1967,-81.7 2021,-81.7 2021,-117.7"/>
<text text-anchor="middle" x="1994" y="-96.2" font-family="Inconsolata" font-size="14.00" fill="#000000"> </text>
</g>
<!-- prespace_25&#45;&gt;leaf_35 -->
<g id="edge35" class="edge">
<title>prespace_25&#45;&gt;leaf_35</title>
<path fill="none" stroke="#000000" stroke-dasharray="5,2" d="M1935.6934,-181.3293C1946.5626,-166.1124 1962.3782,-143.9705 1974.7962,-126.5853"/>
<polygon fill="#000000" stroke="#000000" points="1977.9718,-128.1611 1980.9362,-117.9894 1972.2757,-124.0924 1977.9718,-128.1611"/>
</g>
<!-- leaf_36 -->
<g id="node37" class="node">
<title>leaf_36</title>
<polygon fill="none" stroke="#c0c0c0" points="2093,-117.7 2039,-117.7 2039,-81.7 2093,-81.7 2093,-117.7"/>
<text text-anchor="middle" x="2066" y="-96.2" font-family="Inconsolata" font-size="14.00" fill="#000000">fm</text>
</g>
<!-- literal_26&#45;&gt;leaf_36 -->
<g id="edge36" class="edge">
<title>literal_26&#45;&gt;leaf_36</title>
<path fill="none" stroke="#000000" stroke-dasharray="5,2" d="M2027.4027,-181.3293C2034.5317,-166.252 2044.8755,-144.3762 2053.0608,-127.065"/>
<polygon fill="#000000" stroke="#000000" points="2056.2416,-128.5259 2057.3521,-117.9894 2049.9133,-125.5336 2056.2416,-128.5259"/>
</g>
<!-- leaf_37 -->
<g id="node38" class="node">
<title>leaf_37</title>
<polygon fill="none" stroke="#c0c0c0" points="2165,-117.7 2111,-117.7 2111,-81.7 2165,-81.7 2165,-117.7"/>
<text text-anchor="middle" x="2138" y="-96.2" font-family="Inconsolata" font-size="14.00" fill="#000000"> or</text>
</g>
<!-- raw_27&#45;&gt;leaf_37 -->
<g id="edge37" class="edge">
<title>raw_27&#45;&gt;leaf_37</title>
<path fill="none" stroke="#000000" stroke-dasharray="5,2" d="M2102.49,-181.7859C2108.9669,-166.8138 2118.4481,-144.8966 2125.9847,-127.4749"/>
<polygon fill="#000000" stroke="#000000" points="2129.4019,-128.3908 2130.16,-117.8231 2122.9773,-125.6115 2129.4019,-128.3908"/>
</g>
<!-- leaf_38 -->
<g id="node39" class="node">
<title>leaf_38</title>
<polygon fill="none" stroke="#c0c0c0" points="2237,-117.7 2183,-117.7 2183,-81.7 2237,-81.7 2237,-117.7"/>
<text text-anchor="middle" x="2210" y="-96.2" font-family="Inconsolata" font-size="14.00" fill="#000000"> </text>
</g>
<!-- prespace_28&#45;&gt;leaf_38 -->
<g id="edge38" class="edge">
<title>prespace_28&#45;&gt;leaf_38</title>
<path fill="none" stroke="#000000" stroke-dasharray="5,2" d="M2190.402,-180.8685C2193.9881,-166.0162 2199.112,-144.7943 2203.2213,-127.7751"/>
<polygon fill="#000000" stroke="#000000" points="2206.6811,-128.3581 2205.6259,-117.8159 2199.8766,-126.7151 2206.6811,-128.3581"/>
</g>
<!-- leaf_39 -->
<g id="node40" class="node">
<title>leaf_39</title>
<polygon fill="none" stroke="#c0c0c0" points="2309,-117.7 2255,-117.7 2255,-81.7 2309,-81.7 2309,-117.7"/>
<text text-anchor="middle" x="2282" y="-96.2" font-family="Inconsolata" font-size="14.00" fill="#000000">orb</text>
</g>
<!-- literal_29&#45;&gt;leaf_39 -->
<g id="edge39" class="edge">
<title>literal_29&#45;&gt;leaf_39</title>
<path fill="none" stroke="#000000" stroke-dasharray="5,2" d="M2282,-180.8685C2282,-166.1563 2282,-145.1942 2282,-128.2579"/>
<polygon fill="#000000" stroke="#000000" points="2285.5001,-127.8159 2282,-117.8159 2278.5001,-127.816 2285.5001,-127.8159"/>
</g>
<!-- leaf_40 -->
<g id="node41" class="node">
<title>leaf_40</title>
<polygon fill="none" stroke="#c0c0c0" points="2721,-119.0006 2327,-119.0006 2327,-80.3994 2721,-80.3994 2721,-119.0006"/>
<text text-anchor="middle" x="2524" y="-103.9" font-family="Inconsolata" font-size="14.00" fill="#000000"> and then call the particular argument parser distinct</text>
<text text-anchor="middle" x="2524" y="-88.5" font-family="Inconsolata" font-size="14.00" fill="#000000">to that submodule.</text>
</g>
<!-- raw_30&#45;&gt;leaf_40 -->
<g id="edge40" class="edge">
<title>raw_30&#45;&gt;leaf_40</title>
<path fill="none" stroke="#000000" stroke-dasharray="5,2" d="M2454.3354,-183.1297C2466.9722,-167.996 2486.2059,-144.9619 2501.2644,-126.928"/>
<polygon fill="#000000" stroke="#000000" points="2504.1277,-128.9596 2507.8506,-119.0404 2498.7546,-124.473 2504.1277,-128.9596"/>
</g>
<!-- leaf_44 -->
<g id="node45" class="node">
<title>leaf_44</title>
<polygon fill="none" stroke="#c0c0c0" points="2909,-117.7 2739,-117.7 2739,-81.7 2909,-81.7 2909,-117.7"/>
<text text-anchor="middle" x="2824" y="-96.2" font-family="Inconsolata" font-size="14.00" fill="#000000">*** Close package.conn</text>
</g>
<!-- header_41&#45;&gt;leaf_44 -->
<g id="edge44" class="edge">
<title>header_41&#45;&gt;leaf_44</title>
<path fill="none" stroke="#000000" stroke-dasharray="5,2" d="M2814.201,-180.8685C2815.994,-166.0162 2818.556,-144.7943 2820.6106,-127.7751"/>
<polygon fill="#000000" stroke="#000000" points="2824.0891,-128.1634 2821.813,-117.8159 2817.1396,-127.3243 2824.0891,-128.1634"/>
</g>
<!-- raw_45 -->
<g id="node46" class="node">
<title>raw_45</title>
<ellipse fill="none" stroke="#000000" cx="2965" cy="-99.7" rx="27" ry="18"/>
<text text-anchor="middle" x="2965" y="-95.5" font-family="Helvetica,sans-Serif" font-size="14.00" fill="#000000">raw</text>
</g>
<!-- prose_42&#45;&gt;raw_45 -->
<g id="edge45" class="edge">
<title>prose_42&#45;&gt;raw_45</title>
<path fill="none" stroke="#000000" stroke-dasharray="5,2" d="M2965,-180.8685C2965,-166.1563 2965,-145.1942 2965,-128.2579"/>
<polygon fill="#000000" stroke="#000000" points="2968.5001,-127.8159 2965,-117.8159 2961.5001,-127.816 2968.5001,-127.8159"/>
</g>
<!-- leaf_47 -->
<g id="node48" class="node">
<title>leaf_47</title>
<polygon fill="none" stroke="#c0c0c0" points="3180,-126.9005 3010,-126.9005 3010,-72.4996 3180,-72.4996 3180,-126.9005"/>
<text text-anchor="middle" x="3095" y="-111.6001" font-family="Inconsolata" font-size="14.00" fill="#000000">do</text>
<text text-anchor="middle" x="3095" y="-96.2" font-family="Inconsolata" font-size="14.00" fill="#000000"> &#160;&#160;local three = 1 + 2</text>
<text text-anchor="middle" x="3095" y="-80.8" font-family="Inconsolata" font-size="14.00" fill="#000000">end</text>
</g>
<!-- codeblock_43&#45;&gt;leaf_47 -->
<g id="edge47" class="edge">
<title>codeblock_43&#45;&gt;leaf_47</title>
<path fill="none" stroke="#000000" stroke-dasharray="5,2" d="M3094.1834,-180.8685C3094.3071,-168.5733 3094.4747,-151.913 3094.6259,-136.8855"/>
<polygon fill="#000000" stroke="#000000" points="3098.1263,-136.8511 3094.7272,-126.8164 3091.1267,-136.7806 3098.1263,-136.8511"/>
</g>
<!-- leaf_46 -->
<g id="node47" class="node">
<title>leaf_46</title>
<polygon fill="none" stroke="#c0c0c0" points="2992,-36 2938,-36 2938,0 2992,0 2992,-36"/>
</g>
<!-- raw_45&#45;&gt;leaf_46 -->
<g id="edge46" class="edge">
<title>raw_45&#45;&gt;leaf_46</title>
<path fill="none" stroke="#000000" stroke-dasharray="5,2" d="M2965,-81.5681C2965,-71.2023 2965,-57.9747 2965,-46.2729"/>
<polygon fill="#000000" stroke="#000000" points="2968.5001,-46.0812 2965,-36.0812 2961.5001,-46.0812 2968.5001,-46.0812"/>
</g>
</g>
</svg>
