<?xml version="1.0" encoding="UTF-8" standalone="no"?>
<!DOCTYPE svg PUBLIC "-//W3C//DTD SVG 1.1//EN"
 "http://www.w3.org/Graphics/SVG/1.1/DTD/svg11.dtd">
<!-- Generated by graphviz version 2.40.1 (20161225.0304)
 -->
<!-- Title: lpegNode Pages: 1 -->
<svg width="903pt" height="439pt"
 viewBox="0.00 0.00 903.00 439.40" xmlns="http://www.w3.org/2000/svg" xmlns:xlink="http://www.w3.org/1999/xlink">
<g id="graph0" class="graph" transform="scale(1 1) rotate(0) translate(4 435.4)">
<title>lpegNode</title>
<polygon fill="#ffffff" stroke="transparent" points="-4,4 -4,-435.4 899,-435.4 899,4 -4,4"/>
<!-- doc_0 -->
<g id="node1" class="node">
<title>doc_0</title>
<ellipse fill="none" stroke="#000000" cx="310" cy="-413.4" rx="42.1216" ry="18"/>
<text text-anchor="middle" x="310" y="-409.2" font-family="Helvetica,sans-Serif" font-size="14.00" fill="#000000">doc &#45; 14</text>
</g>
<!-- section_1 -->
<g id="node2" class="node">
<title>section_1</title>
<ellipse fill="none" stroke="#000000" cx="310" cy="-341.4" rx="55.6456" ry="18"/>
<text text-anchor="middle" x="310" y="-337.2" font-family="Helvetica,sans-Serif" font-size="14.00" fill="#000000">section: 1&#45;5</text>
</g>
<!-- doc_0&#45;&gt;section_1 -->
<g id="edge1" class="edge">
<title>doc_0&#45;&gt;section_1</title>
<path fill="none" stroke="#000000" stroke-dasharray="5,2" d="M310,-395.2314C310,-387.531 310,-378.3744 310,-369.8167"/>
<polygon fill="#000000" stroke="#000000" points="313.5001,-369.8133 310,-359.8133 306.5001,-369.8133 313.5001,-369.8133"/>
</g>
<!-- header_2 -->
<g id="node3" class="node">
<title>header_2</title>
<ellipse fill="none" stroke="#000000" cx="200" cy="-269.4" rx="59.5136" ry="18"/>
<text text-anchor="middle" x="200" y="-265.2" font-family="Helvetica,sans-Serif" font-size="14.00" fill="#000000">1 : Afterward</text>
</g>
<!-- section_1&#45;&gt;header_2 -->
<g id="edge2" class="edge">
<title>section_1&#45;&gt;header_2</title>
<path fill="none" stroke="#000000" stroke-dasharray="5,2" d="M285.3139,-325.2418C269.9947,-315.2148 250.1128,-302.2011 233.3964,-291.2595"/>
<polygon fill="#000000" stroke="#000000" points="235.2682,-288.3016 224.9843,-285.7534 231.4346,-294.1585 235.2682,-288.3016"/>
</g>
<!-- prose_3 -->
<g id="node4" class="node">
<title>prose_3</title>
<ellipse fill="none" stroke="#000000" cx="310" cy="-269.4" rx="32.4585" ry="18"/>
<text text-anchor="middle" x="310" y="-265.2" font-family="Helvetica,sans-Serif" font-size="14.00" fill="#000000">prose</text>
</g>
<!-- section_1&#45;&gt;prose_3 -->
<g id="edge3" class="edge">
<title>section_1&#45;&gt;prose_3</title>
<path fill="none" stroke="#000000" stroke-dasharray="5,2" d="M310,-323.2314C310,-315.531 310,-306.3744 310,-297.8167"/>
<polygon fill="#000000" stroke="#000000" points="313.5001,-297.8133 310,-287.8133 306.5001,-297.8133 313.5001,-297.8133"/>
</g>
<!-- section_4 -->
<g id="node5" class="node">
<title>section_4</title>
<ellipse fill="none" stroke="#000000" cx="605" cy="-269.4" rx="60.9826" ry="18"/>
<text text-anchor="middle" x="605" y="-265.2" font-family="Helvetica,sans-Serif" font-size="14.00" fill="#000000">section: 6&#45;14</text>
</g>
<!-- section_1&#45;&gt;section_4 -->
<g id="edge4" class="edge">
<title>section_1&#45;&gt;section_4</title>
<path fill="none" stroke="#000000" stroke-dasharray="5,2" d="M354.8042,-330.4648C406.5021,-317.847 491.6144,-297.0738 547.9879,-283.3149"/>
<polygon fill="#000000" stroke="#000000" points="548.9329,-286.687 557.8179,-280.9157 547.2731,-279.8866 548.9329,-286.687"/>
</g>
<!-- leaf_5 -->
<g id="node6" class="node">
<title>leaf_5</title>
<polygon fill="none" stroke="#c0c0c0" points="246.5,-215.4 153.5,-215.4 153.5,-179.4 246.5,-179.4 246.5,-215.4"/>
<text text-anchor="middle" x="200" y="-193.9" font-family="Inconsolata" font-size="14.00" fill="#000000">* Afterward</text>
</g>
<!-- header_2&#45;&gt;leaf_5 -->
<g id="edge5" class="edge">
<title>header_2&#45;&gt;leaf_5</title>
<path fill="none" stroke="#000000" stroke-dasharray="5,2" d="M200,-251.2314C200,-243.531 200,-234.3744 200,-225.8167"/>
<polygon fill="#000000" stroke="#000000" points="203.5001,-225.8133 200,-215.8133 196.5001,-225.8133 203.5001,-225.8133"/>
</g>
<!-- raw_6 -->
<g id="node7" class="node">
<title>raw_6</title>
<ellipse fill="none" stroke="#000000" cx="301" cy="-197.4" rx="27" ry="18"/>
<text text-anchor="middle" x="301" y="-193.2" font-family="Helvetica,sans-Serif" font-size="14.00" fill="#000000">raw</text>
</g>
<!-- prose_3&#45;&gt;raw_6 -->
<g id="edge6" class="edge">
<title>prose_3&#45;&gt;raw_6</title>
<path fill="none" stroke="#000000" stroke-dasharray="5,2" d="M307.7289,-251.2314C306.7664,-243.531 305.6218,-234.3744 304.5521,-225.8167"/>
<polygon fill="#000000" stroke="#000000" points="308.0151,-225.3019 303.3017,-215.8133 301.0691,-226.1702 308.0151,-225.3019"/>
</g>
<!-- header_8 -->
<g id="node9" class="node">
<title>header_8</title>
<ellipse fill="none" stroke="#000000" cx="529" cy="-197.4" rx="102.5628" ry="18"/>
<text text-anchor="middle" x="529" y="-193.2" font-family="Helvetica,sans-Serif" font-size="14.00" fill="#000000">3 : Close package.conn</text>
</g>
<!-- section_4&#45;&gt;header_8 -->
<g id="edge8" class="edge">
<title>section_4&#45;&gt;header_8</title>
<path fill="none" stroke="#000000" stroke-dasharray="5,2" d="M586.6025,-251.9708C577.1286,-242.9956 565.4162,-231.8996 555.0318,-222.0617"/>
<polygon fill="#000000" stroke="#000000" points="557.4227,-219.5055 547.756,-215.1689 552.6085,-224.5872 557.4227,-219.5055"/>
</g>
<!-- prose_9 -->
<g id="node10" class="node">
<title>prose_9</title>
<ellipse fill="none" stroke="#000000" cx="682" cy="-197.4" rx="32.4585" ry="18"/>
<text text-anchor="middle" x="682" y="-193.2" font-family="Helvetica,sans-Serif" font-size="14.00" fill="#000000">prose</text>
</g>
<!-- section_4&#45;&gt;prose_9 -->
<g id="edge9" class="edge">
<title>section_4&#45;&gt;prose_9</title>
<path fill="none" stroke="#000000" stroke-dasharray="5,2" d="M623.6396,-251.9708C633.9822,-242.2998 646.9582,-230.1664 658.0467,-219.798"/>
<polygon fill="#000000" stroke="#000000" points="660.4524,-222.3402 665.3662,-212.9537 655.6715,-217.2272 660.4524,-222.3402"/>
</g>
<!-- codeblock_10 -->
<g id="node11" class="node">
<title>codeblock_10</title>
<ellipse fill="none" stroke="#000000" cx="808" cy="-197.4" rx="72.5844" ry="18"/>
<text text-anchor="middle" x="808" y="-193.2" font-family="Helvetica,sans-Serif" font-size="14.00" fill="#000000">code block 8&#45;12</text>
</g>
<!-- section_4&#45;&gt;codeblock_10 -->
<g id="edge10" class="edge">
<title>section_4&#45;&gt;codeblock_10</title>
<path fill="none" stroke="#000000" stroke-dasharray="5,2" d="M644.1404,-255.5177C676.1555,-244.1626 721.6846,-228.0143 756.629,-215.6203"/>
<polygon fill="#000000" stroke="#000000" points="757.9296,-218.8727 766.1844,-212.2312 755.5897,-212.2753 757.9296,-218.8727"/>
</g>
<!-- leaf_7 -->
<g id="node8" class="node">
<title>leaf_7</title>
<polygon fill="none" stroke="#c0c0c0" points="436,-143.6012 0,-143.6012 0,-71.7989 436,-71.7989 436,-143.6012"/>
<text text-anchor="middle" x="218" y="-96.2" font-family="Inconsolata" font-size="14.00" fill="#000000">Performs cleanup. Does a no&#45;op now to keep the loader clean.</text>
</g>
<!-- raw_6&#45;&gt;leaf_7 -->
<g id="edge7" class="edge">
<title>raw_6&#45;&gt;leaf_7</title>
<path fill="none" stroke="#000000" stroke-dasharray="5,2" d="M286.5425,-181.7755C278.6178,-173.211 268.3628,-162.1282 258.2107,-151.1567"/>
<polygon fill="#000000" stroke="#000000" points="260.5894,-148.5739 251.2288,-143.6111 255.4515,-153.3281 260.5894,-148.5739"/>
</g>
<!-- leaf_11 -->
<g id="node12" class="node">
<title>leaf_11</title>
<polygon fill="none" stroke="#c0c0c0" points="624,-125.7 454,-125.7 454,-89.7 624,-89.7 624,-125.7"/>
<text text-anchor="middle" x="539" y="-104.2" font-family="Inconsolata" font-size="14.00" fill="#000000">*** Close package.conn</text>
</g>
<!-- header_8&#45;&gt;leaf_11 -->
<g id="edge11" class="edge">
<title>header_8&#45;&gt;leaf_11</title>
<path fill="none" stroke="#000000" stroke-dasharray="5,2" d="M531.0236,-179.2479C532.4062,-166.8465 534.2661,-150.1633 535.8421,-136.0263"/>
<polygon fill="#000000" stroke="#000000" points="539.3498,-136.1514 536.9794,-125.8252 532.3929,-135.3758 539.3498,-136.1514"/>
</g>
<!-- raw_12 -->
<g id="node13" class="node">
<title>raw_12</title>
<ellipse fill="none" stroke="#000000" cx="680" cy="-107.7" rx="27" ry="18"/>
<text text-anchor="middle" x="680" y="-103.5" font-family="Helvetica,sans-Serif" font-size="14.00" fill="#000000">raw</text>
</g>
<!-- prose_9&#45;&gt;raw_12 -->
<g id="edge12" class="edge">
<title>prose_9&#45;&gt;raw_12</title>
<path fill="none" stroke="#000000" stroke-dasharray="5,2" d="M681.5953,-179.2479C681.3188,-166.8465 680.9468,-150.1633 680.6316,-136.0263"/>
<polygon fill="#000000" stroke="#000000" points="684.1263,-135.7446 680.4041,-125.8252 677.128,-135.9007 684.1263,-135.7446"/>
</g>
<!-- leaf_14 -->
<g id="node15" class="node">
<title>leaf_14</title>
<polygon fill="none" stroke="#c0c0c0" points="895,-134.9005 725,-134.9005 725,-80.4996 895,-80.4996 895,-134.9005"/>
<text text-anchor="middle" x="810" y="-119.6001" font-family="Inconsolata" font-size="14.00" fill="#000000">do</text>
<text text-anchor="middle" x="810" y="-104.2" font-family="Inconsolata" font-size="14.00" fill="#000000"> &#160;&#160;local three = 1 + 2</text>
<text text-anchor="middle" x="810" y="-88.8" font-family="Inconsolata" font-size="14.00" fill="#000000">end</text>
</g>
<!-- codeblock_10&#45;&gt;leaf_14 -->
<g id="edge14" class="edge">
<title>codeblock_10&#45;&gt;leaf_14</title>
<path fill="none" stroke="#000000" stroke-dasharray="5,2" d="M808.4047,-179.2479C808.6237,-169.4285 808.9025,-156.9247 809.1655,-145.126"/>
<polygon fill="#000000" stroke="#000000" points="812.6669,-145.0996 809.3908,-135.0241 805.6686,-144.9435 812.6669,-145.0996"/>
</g>
<!-- leaf_13 -->
<g id="node14" class="node">
<title>leaf_13</title>
<polygon fill="none" stroke="#c0c0c0" points="707,-36 653,-36 653,0 707,0 707,-36"/>
</g>
<!-- raw_12&#45;&gt;leaf_13 -->
<g id="edge13" class="edge">
<title>raw_12&#45;&gt;leaf_13</title>
<path fill="none" stroke="#000000" stroke-dasharray="5,2" d="M680,-89.5479C680,-77.1465 680,-60.4633 680,-46.3263"/>
<polygon fill="#000000" stroke="#000000" points="683.5001,-46.1251 680,-36.1251 676.5001,-46.1252 683.5001,-46.1251"/>
</g>
</g>
</svg>
