<?xml version="1.0" encoding="UTF-8" standalone="no"?>
<!DOCTYPE svg PUBLIC "-//W3C//DTD SVG 1.1//EN"
 "http://www.w3.org/Graphics/SVG/1.1/DTD/svg11.dtd">
<!-- Generated by graphviz version 2.40.1 (20161225.0304)
 -->
<!-- Title: lpegNode Pages: 1 -->
<svg width="1031pt" height="423pt"
 viewBox="0.00 0.00 1031.00 423.40" xmlns="http://www.w3.org/2000/svg" xmlns:xlink="http://www.w3.org/1999/xlink">
<g id="graph0" class="graph" transform="scale(1 1) rotate(0) translate(4 419.4)">
<title>lpegNode</title>
<polygon fill="#ffffff" stroke="transparent" points="-4,4 -4,-419.4 1027,-419.4 1027,4 -4,4"/>
<!-- doc_0 -->
<g id="node1" class="node">
<title>doc_0</title>
<ellipse fill="none" stroke="#000000" cx="385" cy="-397.4" rx="42.1216" ry="18"/>
<text text-anchor="middle" x="385" y="-393.2" font-family="Helvetica,sans-Serif" font-size="14.00" fill="#000000">doc &#45; 12</text>
</g>
<!-- section_1 -->
<g id="node2" class="node">
<title>section_1</title>
<ellipse fill="none" stroke="#000000" cx="385" cy="-325.4" rx="55.6456" ry="18"/>
<text text-anchor="middle" x="385" y="-321.2" font-family="Helvetica,sans-Serif" font-size="14.00" fill="#000000">section: 1&#45;5</text>
</g>
<!-- doc_0&#45;&gt;section_1 -->
<g id="edge1" class="edge">
<title>doc_0&#45;&gt;section_1</title>
<path fill="none" stroke="#000000" stroke-dasharray="5,2" d="M385,-379.2314C385,-371.531 385,-362.3744 385,-353.8167"/>
<polygon fill="#000000" stroke="#000000" points="388.5001,-353.8133 385,-343.8133 381.5001,-353.8133 388.5001,-353.8133"/>
</g>
<!-- header_2 -->
<g id="node3" class="node">
<title>header_2</title>
<ellipse fill="none" stroke="#000000" cx="239" cy="-253.4" rx="59.5136" ry="18"/>
<text text-anchor="middle" x="239" y="-249.2" font-family="Helvetica,sans-Serif" font-size="14.00" fill="#000000">1 : Afterward</text>
</g>
<!-- section_1&#45;&gt;header_2 -->
<g id="edge2" class="edge">
<title>section_1&#45;&gt;header_2</title>
<path fill="none" stroke="#000000" stroke-dasharray="5,2" d="M354.3936,-310.3065C332.6173,-299.5675 303.1387,-285.0301 279.4275,-273.3369"/>
<polygon fill="#000000" stroke="#000000" points="280.8381,-270.1301 270.3214,-268.8462 277.742,-276.4082 280.8381,-270.1301"/>
</g>
<!-- prose_3 -->
<g id="node4" class="node">
<title>prose_3</title>
<ellipse fill="none" stroke="#000000" cx="385" cy="-253.4" rx="32.4585" ry="18"/>
<text text-anchor="middle" x="385" y="-249.2" font-family="Helvetica,sans-Serif" font-size="14.00" fill="#000000">prose</text>
</g>
<!-- section_1&#45;&gt;prose_3 -->
<g id="edge3" class="edge">
<title>section_1&#45;&gt;prose_3</title>
<path fill="none" stroke="#000000" stroke-dasharray="5,2" d="M385,-307.2314C385,-299.531 385,-290.3744 385,-281.8167"/>
<polygon fill="#000000" stroke="#000000" points="388.5001,-281.8133 385,-271.8133 381.5001,-281.8133 388.5001,-281.8133"/>
</g>
<!-- section_4 -->
<g id="node5" class="node">
<title>section_4</title>
<ellipse fill="none" stroke="#000000" cx="745" cy="-253.4" rx="60.9826" ry="18"/>
<text text-anchor="middle" x="745" y="-249.2" font-family="Helvetica,sans-Serif" font-size="14.00" fill="#000000">section: 6&#45;12</text>
</g>
<!-- section_1&#45;&gt;section_4 -->
<g id="edge4" class="edge">
<title>section_1&#45;&gt;section_4</title>
<path fill="none" stroke="#000000" stroke-dasharray="5,2" d="M432.8052,-315.839C497.6123,-302.8776 613.3724,-279.7256 684.2621,-265.5476"/>
<polygon fill="#000000" stroke="#000000" points="685.2648,-268.9165 694.3842,-263.5232 683.892,-262.0524 685.2648,-268.9165"/>
</g>
<!-- leaf_5 -->
<g id="node6" class="node">
<title>leaf_5</title>
<polygon fill="none" stroke="#c0c0c0" points="200.5,-199.4 107.5,-199.4 107.5,-163.4 200.5,-163.4 200.5,-199.4"/>
<text text-anchor="middle" x="154" y="-177.9" font-family="Inconsolata" font-size="14.00" fill="#000000">* Afterward</text>
</g>
<!-- header_2&#45;&gt;leaf_5 -->
<g id="edge5" class="edge">
<title>header_2&#45;&gt;leaf_5</title>
<path fill="none" stroke="#000000" stroke-dasharray="5,2" d="M218.8562,-236.337C208.2459,-227.3495 195.0369,-216.1607 183.3137,-206.2304"/>
<polygon fill="#000000" stroke="#000000" points="185.3778,-203.392 175.4851,-199.5992 180.8534,-208.7333 185.3778,-203.392"/>
</g>
<!-- raw_6 -->
<g id="node7" class="node">
<title>raw_6</title>
<ellipse fill="none" stroke="#000000" cx="246" cy="-181.4" rx="27" ry="18"/>
<text text-anchor="middle" x="246" y="-177.2" font-family="Helvetica,sans-Serif" font-size="14.00" fill="#000000">raw</text>
</g>
<!-- prose_3&#45;&gt;raw_6 -->
<g id="edge6" class="edge">
<title>prose_3&#45;&gt;raw_6</title>
<path fill="none" stroke="#000000" stroke-dasharray="5,2" d="M361.105,-241.0228C337.8411,-228.9724 302.3712,-210.5995 276.9572,-197.4354"/>
<polygon fill="#000000" stroke="#000000" points="278.2451,-194.1609 267.7557,-192.6692 275.0254,-200.3765 278.2451,-194.1609"/>
</g>
<!-- prespace_7 -->
<g id="node8" class="node">
<title>prespace_7</title>
<ellipse fill="none" stroke="#000000" cx="337" cy="-181.4" rx="46.4736" ry="18"/>
<text text-anchor="middle" x="337" y="-177.2" font-family="Helvetica,sans-Serif" font-size="14.00" fill="#000000">prespace</text>
</g>
<!-- prose_3&#45;&gt;prespace_7 -->
<g id="edge7" class="edge">
<title>prose_3&#45;&gt;prespace_7</title>
<path fill="none" stroke="#000000" stroke-dasharray="5,2" d="M373.6247,-236.337C367.8513,-227.677 360.7154,-216.9732 354.2805,-207.3208"/>
<polygon fill="#000000" stroke="#000000" points="357.0863,-205.2198 348.6271,-198.8407 351.262,-209.1027 357.0863,-205.2198"/>
</g>
<!-- literal_8 -->
<g id="node9" class="node">
<title>literal_8</title>
<ellipse fill="none" stroke="#000000" cx="433" cy="-181.4" rx="31.481" ry="18"/>
<text text-anchor="middle" x="433" y="-177.2" font-family="Helvetica,sans-Serif" font-size="14.00" fill="#000000">literal</text>
</g>
<!-- prose_3&#45;&gt;literal_8 -->
<g id="edge8" class="edge">
<title>prose_3&#45;&gt;literal_8</title>
<path fill="none" stroke="#000000" stroke-dasharray="5,2" d="M396.3753,-236.337C402.2336,-227.5497 409.4948,-216.6579 416.0029,-206.8956"/>
<polygon fill="#000000" stroke="#000000" points="419.0715,-208.6025 421.7063,-198.3405 413.2471,-204.7196 419.0715,-208.6025"/>
</g>
<!-- raw_9 -->
<g id="node10" class="node">
<title>raw_9</title>
<ellipse fill="none" stroke="#000000" cx="517" cy="-181.4" rx="27" ry="18"/>
<text text-anchor="middle" x="517" y="-177.2" font-family="Helvetica,sans-Serif" font-size="14.00" fill="#000000">raw</text>
</g>
<!-- prose_3&#45;&gt;raw_9 -->
<g id="edge9" class="edge">
<title>prose_3&#45;&gt;raw_9</title>
<path fill="none" stroke="#000000" stroke-dasharray="5,2" d="M408.2951,-240.6936C430.1185,-228.7899 462.8586,-210.9317 486.7038,-197.9252"/>
<polygon fill="#000000" stroke="#000000" points="488.5801,-200.8887 495.6831,-193.0274 485.2281,-194.7434 488.5801,-200.8887"/>
</g>
<!-- header_14 -->
<g id="node15" class="node">
<title>header_14</title>
<ellipse fill="none" stroke="#000000" cx="669" cy="-181.4" rx="102.5628" ry="18"/>
<text text-anchor="middle" x="669" y="-177.2" font-family="Helvetica,sans-Serif" font-size="14.00" fill="#000000">3 : Close package.conn</text>
</g>
<!-- section_4&#45;&gt;header_14 -->
<g id="edge14" class="edge">
<title>section_4&#45;&gt;header_14</title>
<path fill="none" stroke="#000000" stroke-dasharray="5,2" d="M726.6025,-235.9708C717.1286,-226.9956 705.4162,-215.8996 695.0318,-206.0617"/>
<polygon fill="#000000" stroke="#000000" points="697.4227,-203.5055 687.756,-199.1689 692.6085,-208.5872 697.4227,-203.5055"/>
</g>
<!-- prose_15 -->
<g id="node16" class="node">
<title>prose_15</title>
<ellipse fill="none" stroke="#000000" cx="822" cy="-181.4" rx="32.4585" ry="18"/>
<text text-anchor="middle" x="822" y="-177.2" font-family="Helvetica,sans-Serif" font-size="14.00" fill="#000000">prose</text>
</g>
<!-- section_4&#45;&gt;prose_15 -->
<g id="edge15" class="edge">
<title>section_4&#45;&gt;prose_15</title>
<path fill="none" stroke="#000000" stroke-dasharray="5,2" d="M763.6396,-235.9708C773.9822,-226.2998 786.9582,-214.1664 798.0467,-203.798"/>
<polygon fill="#000000" stroke="#000000" points="800.4524,-206.3402 805.3662,-196.9537 795.6715,-201.2272 800.4524,-206.3402"/>
</g>
<!-- codeblock_16 -->
<g id="node17" class="node">
<title>codeblock_16</title>
<ellipse fill="none" stroke="#000000" cx="945" cy="-181.4" rx="72.5844" ry="18"/>
<text text-anchor="middle" x="945" y="-177.2" font-family="Helvetica,sans-Serif" font-size="14.00" fill="#000000">code block 8&#45;10</text>
</g>
<!-- section_4&#45;&gt;codeblock_16 -->
<g id="edge16" class="edge">
<title>section_4&#45;&gt;codeblock_16</title>
<path fill="none" stroke="#000000" stroke-dasharray="5,2" d="M784.0368,-239.3468C815.3869,-228.0608 859.6635,-212.1212 893.8462,-199.8154"/>
<polygon fill="#000000" stroke="#000000" points="895.4285,-202.9657 903.6518,-196.2854 893.0574,-196.3795 895.4285,-202.9657"/>
</g>
<!-- leaf_10 -->
<g id="node11" class="node">
<title>leaf_10</title>
<polygon fill="none" stroke="#c0c0c0" points="282,-127.6015 0,-127.6015 0,-71.7985 282,-71.7985 282,-127.6015"/>
<text text-anchor="middle" x="141" y="-80.2" font-family="Inconsolata" font-size="14.00" fill="#000000">Performs cleanup. Let&#39;s begin with the</text>
</g>
<!-- raw_6&#45;&gt;leaf_10 -->
<g id="edge10" class="edge">
<title>raw_6&#45;&gt;leaf_10</title>
<path fill="none" stroke="#000000" stroke-dasharray="5,2" d="M228.1882,-167.5407C216.34,-158.3217 200.2253,-145.783 185.0725,-133.9926"/>
<polygon fill="#000000" stroke="#000000" points="186.828,-130.9239 176.7864,-127.5452 182.5293,-136.4485 186.828,-130.9239"/>
</g>
<!-- leaf_11 -->
<g id="node12" class="node">
<title>leaf_11</title>
<polygon fill="none" stroke="#c0c0c0" points="354,-117.7 300,-117.7 300,-81.7 354,-81.7 354,-117.7"/>
<text text-anchor="middle" x="327" y="-96.2" font-family="Inconsolata" font-size="14.00" fill="#000000"> </text>
</g>
<!-- prespace_7&#45;&gt;leaf_11 -->
<g id="edge11" class="edge">
<title>prespace_7&#45;&gt;leaf_11</title>
<path fill="none" stroke="#000000" stroke-dasharray="5,2" d="M334.7807,-163.2681C333.5119,-152.9023 331.8929,-139.6748 330.4606,-127.973"/>
<polygon fill="#000000" stroke="#000000" points="333.9022,-127.2819 329.2131,-117.7812 326.9541,-128.1324 333.9022,-127.2819"/>
</g>
<!-- leaf_12 -->
<g id="node13" class="node">
<title>leaf_12</title>
<polygon fill="none" stroke="#c0c0c0" points="493.5,-117.7 372.5,-117.7 372.5,-81.7 493.5,-81.7 493.5,-117.7"/>
<text text-anchor="middle" x="433" y="-96.2" font-family="Inconsolata" font-size="14.00" fill="#000000">package.loaders</text>
</g>
<!-- literal_8&#45;&gt;leaf_12 -->
<g id="edge12" class="edge">
<title>literal_8&#45;&gt;leaf_12</title>
<path fill="none" stroke="#000000" stroke-dasharray="5,2" d="M433,-163.2681C433,-152.9023 433,-139.6748 433,-127.973"/>
<polygon fill="#000000" stroke="#000000" points="436.5001,-127.7812 433,-117.7812 429.5001,-127.7812 436.5001,-127.7812"/>
</g>
<!-- leaf_13 -->
<g id="node14" class="node">
<title>leaf_13</title>
<polygon fill="none" stroke="#c0c0c0" points="570,-119.6021 512,-119.6021 512,-79.7979 570,-79.7979 570,-119.6021"/>
<text text-anchor="middle" x="541" y="-104.2" font-family="Inconsolata" font-size="14.00" fill="#000000"> conn.</text>
</g>
<!-- raw_9&#45;&gt;leaf_13 -->
<g id="edge13" class="edge">
<title>raw_9&#45;&gt;leaf_13</title>
<path fill="none" stroke="#000000" stroke-dasharray="5,2" d="M522.2076,-163.6723C525.1506,-153.6541 528.9062,-140.8692 532.2853,-129.3663"/>
<polygon fill="#000000" stroke="#000000" points="535.6675,-130.2704 535.128,-119.6894 528.9513,-128.2975 535.6675,-130.2704"/>
</g>
<!-- leaf_17 -->
<g id="node18" class="node">
<title>leaf_17</title>
<polygon fill="none" stroke="#c0c0c0" points="758,-117.7 588,-117.7 588,-81.7 758,-81.7 758,-117.7"/>
<text text-anchor="middle" x="673" y="-96.2" font-family="Inconsolata" font-size="14.00" fill="#000000">*** Close package.conn</text>
</g>
<!-- header_14&#45;&gt;leaf_17 -->
<g id="edge17" class="edge">
<title>header_14&#45;&gt;leaf_17</title>
<path fill="none" stroke="#000000" stroke-dasharray="5,2" d="M669.8877,-163.2681C670.3952,-152.9023 671.0429,-139.6748 671.6158,-127.973"/>
<polygon fill="#000000" stroke="#000000" points="675.1215,-127.9404 672.1148,-117.7812 668.1298,-127.5981 675.1215,-127.9404"/>
</g>
<!-- raw_18 -->
<g id="node19" class="node">
<title>raw_18</title>
<ellipse fill="none" stroke="#000000" cx="822" cy="-99.7" rx="27" ry="18"/>
<text text-anchor="middle" x="822" y="-95.5" font-family="Helvetica,sans-Serif" font-size="14.00" fill="#000000">raw</text>
</g>
<!-- prose_15&#45;&gt;raw_18 -->
<g id="edge18" class="edge">
<title>prose_15&#45;&gt;raw_18</title>
<path fill="none" stroke="#000000" stroke-dasharray="5,2" d="M822,-163.2681C822,-152.9023 822,-139.6748 822,-127.973"/>
<polygon fill="#000000" stroke="#000000" points="825.5001,-127.7812 822,-117.7812 818.5001,-127.7812 825.5001,-127.7812"/>
</g>
<!-- leaf_20 -->
<g id="node21" class="node">
<title>leaf_20</title>
<polygon fill="none" stroke="#c0c0c0" points="1023,-117.7 867,-117.7 867,-81.7 1023,-81.7 1023,-117.7"/>
<text text-anchor="middle" x="945" y="-96.2" font-family="Inconsolata" font-size="14.00" fill="#000000">package.conn:close()</text>
</g>
<!-- codeblock_16&#45;&gt;leaf_20 -->
<g id="edge20" class="edge">
<title>codeblock_16&#45;&gt;leaf_20</title>
<path fill="none" stroke="#000000" stroke-dasharray="5,2" d="M945,-163.2681C945,-152.9023 945,-139.6748 945,-127.973"/>
<polygon fill="#000000" stroke="#000000" points="948.5001,-127.7812 945,-117.7812 941.5001,-127.7812 948.5001,-127.7812"/>
</g>
<!-- leaf_19 -->
<g id="node20" class="node">
<title>leaf_19</title>
<polygon fill="none" stroke="#c0c0c0" points="849,-36 795,-36 795,0 849,0 849,-36"/>
</g>
<!-- raw_18&#45;&gt;leaf_19 -->
<g id="edge19" class="edge">
<title>raw_18&#45;&gt;leaf_19</title>
<path fill="none" stroke="#000000" stroke-dasharray="5,2" d="M822,-81.5681C822,-71.2023 822,-57.9747 822,-46.2729"/>
<polygon fill="#000000" stroke="#000000" points="825.5001,-46.0812 822,-36.0812 818.5001,-46.0812 825.5001,-46.0812"/>
</g>
</g>
</svg>
