<?xml version="1.0" encoding="UTF-8" standalone="no"?>
<!DOCTYPE svg PUBLIC "-//W3C//DTD SVG 1.1//EN"
 "http://www.w3.org/Graphics/SVG/1.1/DTD/svg11.dtd">
<!-- Generated by graphviz version 2.40.1 (20161225.0304)
 -->
<!-- Title: lpegNode Pages: 1 -->
<svg width="3039pt" height="1268pt"
 viewBox="0.00 0.00 3039.00 1267.60" xmlns="http://www.w3.org/2000/svg" xmlns:xlink="http://www.w3.org/1999/xlink">
<g id="graph0" class="graph" transform="scale(1 1) rotate(0) translate(4 1263.6017)">
<title>lpegNode</title>
<polygon fill="#ffffff" stroke="transparent" points="-4,4 -4,-1263.6017 3035,-1263.6017 3035,4 -4,4"/>
<!-- doc_0 -->
<g id="node1" class="node">
<title>doc_0</title>
<ellipse fill="none" stroke="#000000" cx="1271" cy="-1241.6017" rx="46.9581" ry="18"/>
<text text-anchor="middle" x="1271" y="-1237.4017" font-family="Helvetica,sans-Serif" font-size="14.00" fill="#000000">doc &#45; 104</text>
</g>
<!-- section_1 -->
<g id="node2" class="node">
<title>section_1</title>
<ellipse fill="none" stroke="#000000" cx="1271" cy="-1169.6017" rx="65.8187" ry="18"/>
<text text-anchor="middle" x="1271" y="-1165.4017" font-family="Helvetica,sans-Serif" font-size="14.00" fill="#000000">section: 1&#45;104</text>
</g>
<!-- doc_0&#45;&gt;section_1 -->
<g id="edge1" class="edge">
<title>doc_0&#45;&gt;section_1</title>
<path fill="none" stroke="#000000" stroke-dasharray="5,2" d="M1271,-1223.433C1271,-1215.7326 1271,-1206.576 1271,-1198.0183"/>
<polygon fill="#000000" stroke="#000000" points="1274.5001,-1198.0149 1271,-1188.015 1267.5001,-1198.015 1274.5001,-1198.0149"/>
</g>
<!-- header_2 -->
<g id="node3" class="node">
<title>header_2</title>
<ellipse fill="none" stroke="#000000" cx="468" cy="-1097.6017" rx="39.7164" ry="18"/>
<text text-anchor="middle" x="468" y="-1093.4017" font-family="Helvetica,sans-Serif" font-size="14.00" fill="#000000">1 : boot</text>
</g>
<!-- section_1&#45;&gt;header_2 -->
<g id="edge2" class="edge">
<title>section_1&#45;&gt;header_2</title>
<path fill="none" stroke="#000000" stroke-dasharray="5,2" d="M1208.4127,-1164.1149C1098.1804,-1154.4353 862.2052,-1133.642 663,-1115.6017 613.2688,-1111.098 556.4147,-1105.8371 516.9808,-1102.1703"/>
<polygon fill="#000000" stroke="#000000" points="517.1253,-1098.6687 506.844,-1101.2272 516.4768,-1105.6386 517.1253,-1098.6687"/>
</g>
<!-- prose_3 -->
<g id="node4" class="node">
<title>prose_3</title>
<ellipse fill="none" stroke="#000000" cx="704" cy="-1097.6017" rx="32.4585" ry="18"/>
<text text-anchor="middle" x="704" y="-1093.4017" font-family="Helvetica,sans-Serif" font-size="14.00" fill="#000000">prose</text>
</g>
<!-- section_1&#45;&gt;prose_3 -->
<g id="edge3" class="edge">
<title>section_1&#45;&gt;prose_3</title>
<path fill="none" stroke="#000000" stroke-dasharray="5,2" d="M1209.7242,-1163.0439C1122.567,-1153.5466 957.8438,-1134.9699 818,-1115.6017 793.6699,-1112.232 766.5007,-1107.9621 744.7904,-1104.4268"/>
<polygon fill="#000000" stroke="#000000" points="745.3537,-1100.9725 734.9192,-1102.8089 744.2214,-1107.8803 745.3537,-1100.9725"/>
</g>
<!-- codeblock_4 -->
<g id="node5" class="node">
<title>codeblock_4</title>
<ellipse fill="none" stroke="#000000" cx="900" cy="-1097.6017" rx="72.5844" ry="18"/>
<text text-anchor="middle" x="900" y="-1093.4017" font-family="Helvetica,sans-Serif" font-size="14.00" fill="#000000">code block 4&#45;16</text>
</g>
<!-- section_1&#45;&gt;codeblock_4 -->
<g id="edge4" class="edge">
<title>section_1&#45;&gt;codeblock_4</title>
<path fill="none" stroke="#000000" stroke-dasharray="5,2" d="M1217.0534,-1159.1323C1150.9298,-1146.2997 1038.8588,-1124.55 967.2013,-1110.6434"/>
<polygon fill="#000000" stroke="#000000" points="967.851,-1107.2043 957.3673,-1108.735 966.5173,-1114.0761 967.851,-1107.2043"/>
</g>
<!-- prose_5 -->
<g id="node6" class="node">
<title>prose_5</title>
<ellipse fill="none" stroke="#000000" cx="1059" cy="-1097.6017" rx="32.4585" ry="18"/>
<text text-anchor="middle" x="1059" y="-1093.4017" font-family="Helvetica,sans-Serif" font-size="14.00" fill="#000000">prose</text>
</g>
<!-- section_1&#45;&gt;prose_5 -->
<g id="edge5" class="edge">
<title>section_1&#45;&gt;prose_5</title>
<path fill="none" stroke="#000000" stroke-dasharray="5,2" d="M1229.1962,-1155.5915C1196.8959,-1144.7425 1151.0861,-1129.304 1111,-1115.6017 1106.1524,-1113.9447 1101.054,-1112.192 1096.0225,-1110.4566"/>
<polygon fill="#000000" stroke="#000000" points="1097.1077,-1107.1285 1086.5129,-1107.1699 1094.8211,-1113.7445 1097.1077,-1107.1285"/>
</g>
<!-- codeblock_6 -->
<g id="node7" class="node">
<title>codeblock_6</title>
<ellipse fill="none" stroke="#000000" cx="1197" cy="-1097.6017" rx="77.4211" ry="18"/>
<text text-anchor="middle" x="1197" y="-1093.4017" font-family="Helvetica,sans-Serif" font-size="14.00" fill="#000000">code block 24&#45;28</text>
</g>
<!-- section_1&#45;&gt;codeblock_6 -->
<g id="edge6" class="edge">
<title>section_1&#45;&gt;codeblock_6</title>
<path fill="none" stroke="#000000" stroke-dasharray="5,2" d="M1253.0867,-1152.1725C1243.8835,-1143.218 1232.5108,-1132.1527 1222.4171,-1122.3318"/>
<polygon fill="#000000" stroke="#000000" points="1224.6129,-1119.585 1215.0049,-1115.1199 1219.7314,-1124.6021 1224.6129,-1119.585"/>
</g>
<!-- prose_7 -->
<g id="node8" class="node">
<title>prose_7</title>
<ellipse fill="none" stroke="#000000" cx="1330" cy="-1097.6017" rx="32.4585" ry="18"/>
<text text-anchor="middle" x="1330" y="-1093.4017" font-family="Helvetica,sans-Serif" font-size="14.00" fill="#000000">prose</text>
</g>
<!-- section_1&#45;&gt;prose_7 -->
<g id="edge7" class="edge">
<title>section_1&#45;&gt;prose_7</title>
<path fill="none" stroke="#000000" stroke-dasharray="5,2" d="M1285.5843,-1151.8039C1292.9423,-1142.8246 1301.9804,-1131.7951 1309.9784,-1122.0348"/>
<polygon fill="#000000" stroke="#000000" points="1312.7614,-1124.1607 1316.3924,-1114.2075 1307.347,-1119.7239 1312.7614,-1124.1607"/>
</g>
<!-- prose_8 -->
<g id="node9" class="node">
<title>prose_8</title>
<ellipse fill="none" stroke="#000000" cx="1668" cy="-1097.6017" rx="32.4585" ry="18"/>
<text text-anchor="middle" x="1668" y="-1093.4017" font-family="Helvetica,sans-Serif" font-size="14.00" fill="#000000">prose</text>
</g>
<!-- section_1&#45;&gt;prose_8 -->
<g id="edge8" class="edge">
<title>section_1&#45;&gt;prose_8</title>
<path fill="none" stroke="#000000" stroke-dasharray="5,2" d="M1325.7843,-1159.666C1406.4745,-1145.032 1555.4534,-1118.0132 1627.2358,-1104.9947"/>
<polygon fill="#000000" stroke="#000000" points="1628.0343,-1108.4071 1637.2492,-1103.1787 1626.7851,-1101.5194 1628.0343,-1108.4071"/>
</g>
<!-- prose_9 -->
<g id="node10" class="node">
<title>prose_9</title>
<ellipse fill="none" stroke="#000000" cx="1947" cy="-1097.6017" rx="32.4585" ry="18"/>
<text text-anchor="middle" x="1947" y="-1093.4017" font-family="Helvetica,sans-Serif" font-size="14.00" fill="#000000">prose</text>
</g>
<!-- section_1&#45;&gt;prose_9 -->
<g id="edge9" class="edge">
<title>section_1&#45;&gt;prose_9</title>
<path fill="none" stroke="#000000" stroke-dasharray="5,2" d="M1332.4824,-1163.0533C1468.0405,-1148.6151 1789.7018,-1114.3553 1904.9832,-1102.0768"/>
<polygon fill="#000000" stroke="#000000" points="1905.5916,-1105.5319 1915.1646,-1100.9924 1904.8502,-1098.5713 1905.5916,-1105.5319"/>
</g>
<!-- prose_10 -->
<g id="node11" class="node">
<title>prose_10</title>
<ellipse fill="none" stroke="#000000" cx="2127" cy="-1097.6017" rx="32.4585" ry="18"/>
<text text-anchor="middle" x="2127" y="-1093.4017" font-family="Helvetica,sans-Serif" font-size="14.00" fill="#000000">prose</text>
</g>
<!-- section_1&#45;&gt;prose_10 -->
<g id="edge10" class="edge">
<title>section_1&#45;&gt;prose_10</title>
<path fill="none" stroke="#000000" stroke-dasharray="5,2" d="M1335.3741,-1165.9143C1461.0298,-1158.4598 1747.7055,-1140.1912 1988,-1115.6017 2020.8412,-1112.241 2057.912,-1107.387 2085.5059,-1103.5664"/>
<polygon fill="#000000" stroke="#000000" points="2086.1694,-1107.0078 2095.589,-1102.1579 2085.2009,-1100.0751 2086.1694,-1107.0078"/>
</g>
<!-- codeblock_11 -->
<g id="node12" class="node">
<title>codeblock_11</title>
<ellipse fill="none" stroke="#000000" cx="2381" cy="-1097.6017" rx="82.2579" ry="18"/>
<text text-anchor="middle" x="2381" y="-1093.4017" font-family="Helvetica,sans-Serif" font-size="14.00" fill="#000000">code block 42&#45;104</text>
</g>
<!-- section_1&#45;&gt;codeblock_11 -->
<g id="edge11" class="edge">
<title>section_1&#45;&gt;codeblock_11</title>
<path fill="none" stroke="#000000" stroke-dasharray="5,2" d="M1335.7602,-1166.2414C1483.4296,-1158.4612 1856.4021,-1138.1437 2168,-1115.6017 2209.6229,-1112.5905 2255.7778,-1108.7516 2294.4519,-1105.3932"/>
<polygon fill="#000000" stroke="#000000" points="2294.974,-1108.861 2304.6321,-1104.5053 2294.3657,-1101.8875 2294.974,-1108.861"/>
</g>
<!-- leaf_12 -->
<g id="node13" class="node">
<title>leaf_12</title>
<polygon fill="none" stroke="#c0c0c0" points="460,-585.2009 402,-585.2009 402,-549.2009 460,-549.2009 460,-585.2009"/>
<text text-anchor="middle" x="431" y="-563.7009" font-family="Inconsolata" font-size="14.00" fill="#000000">* boot</text>
</g>
<!-- header_2&#45;&gt;leaf_12 -->
<g id="edge12" class="edge">
<title>header_2&#45;&gt;leaf_12</title>
<path fill="none" stroke="#000000" stroke-dasharray="5,2" d="M466.7264,-1079.3441C461.2448,-1000.765 439.6394,-691.0485 432.9709,-595.4545"/>
<polygon fill="#000000" stroke="#000000" points="436.4558,-595.1138 432.2683,-585.3817 429.4727,-595.601 436.4558,-595.1138"/>
</g>
<!-- raw_13 -->
<g id="node14" class="node">
<title>raw_13</title>
<ellipse fill="none" stroke="#000000" cx="505" cy="-567.2009" rx="27" ry="18"/>
<text text-anchor="middle" x="505" y="-563.0009" font-family="Helvetica,sans-Serif" font-size="14.00" fill="#000000">raw</text>
</g>
<!-- prose_3&#45;&gt;raw_13 -->
<g id="edge13" class="edge">
<title>prose_3&#45;&gt;raw_13</title>
<path fill="none" stroke="#000000" stroke-dasharray="5,2" d="M673.4449,-1091.6658C630.9815,-1082.7518 557.4708,-1064.6864 541,-1043.6017 433.9812,-906.6042 478.0669,-674.6042 497.5687,-594.9883"/>
<polygon fill="#000000" stroke="#000000" points="500.9835,-595.7604 500.0309,-585.2084 494.1953,-594.0513 500.9835,-595.7604"/>
</g>
<!-- leaf_15 -->
<g id="node16" class="node">
<title>leaf_15</title>
<polygon fill="none" stroke="#c0c0c0" points="993.5,-657.0012 550.5,-657.0012 550.5,-477.4005 993.5,-477.4005 993.5,-657.0012"/>
<text text-anchor="middle" x="772" y="-641.901" font-family="Inconsolata" font-size="14.00" fill="#000000">&#45;&#45;sql = require &quot;src/sqlite&quot;</text>
<text text-anchor="middle" x="772" y="-610.501" font-family="Inconsolata" font-size="14.00" fill="#000000">_BRIDGE = true</text>
<text text-anchor="middle" x="772" y="-579.1009" font-family="Inconsolata" font-size="14.00" fill="#000000">&#45;&#45; For now let&#39;s stay clear of LUA_PATH and friends.</text>
<text text-anchor="middle" x="772" y="-547.7009" font-family="Inconsolata" font-size="14.00" fill="#000000">package.path = &quot;./?.lua;./?/?.lua;./src/?.lua;./src/?/?.lua;&quot;</text>
<text text-anchor="middle" x="772" y="-532.3009" font-family="Inconsolata" font-size="14.00" fill="#000000"> &#160;&#160;&#160;&#160;&#160;&#160;&#160;&#160;&#160;&#160;&#160;&#160;&#160;&#160;.. &quot;./lib/?.lua;./lib/?/?.lua;&quot;</text>
<text text-anchor="middle" x="772" y="-516.9008" font-family="Inconsolata" font-size="14.00" fill="#000000"> &#160;&#160;&#160;&#160;&#160;&#160;&#160;&#160;&#160;&#160;&#160;&#160;&#160;&#160;.. &quot;./lib/?/src/?.lua;./lib/?/src/?/?.lua&quot;</text>
<text text-anchor="middle" x="772" y="-485.5008" font-family="Inconsolata" font-size="14.00" fill="#000000">ffi = require &quot;ffi&quot;</text>
</g>
<!-- codeblock_4&#45;&gt;leaf_15 -->
<g id="edge15" class="edge">
<title>codeblock_4&#45;&gt;leaf_15</title>
<path fill="none" stroke="#000000" stroke-dasharray="5,2" d="M895.594,-1079.3441C880.1166,-1015.2098 827.4821,-797.1051 796.1115,-667.1129"/>
<polygon fill="#000000" stroke="#000000" points="799.4523,-666.0367 793.704,-657.1369 792.6476,-667.6789 799.4523,-666.0367"/>
</g>
<!-- raw_16 -->
<g id="node17" class="node">
<title>raw_16</title>
<ellipse fill="none" stroke="#000000" cx="1039" cy="-567.2009" rx="27" ry="18"/>
<text text-anchor="middle" x="1039" y="-563.0009" font-family="Helvetica,sans-Serif" font-size="14.00" fill="#000000">raw</text>
</g>
<!-- prose_5&#45;&gt;raw_16 -->
<g id="edge16" class="edge">
<title>prose_5&#45;&gt;raw_16</title>
<path fill="none" stroke="#000000" stroke-dasharray="5,2" d="M1058.3116,-1079.3441C1055.3485,-1000.765 1043.67,-691.0485 1040.0654,-595.4545"/>
<polygon fill="#000000" stroke="#000000" points="1043.56,-595.2427 1039.6855,-585.3817 1036.5649,-595.5065 1043.56,-595.2427"/>
</g>
<!-- leaf_18 -->
<g id="node19" class="node">
<title>leaf_18</title>
<polygon fill="none" stroke="#c0c0c0" points="1289.5,-594.4013 1084.5,-594.4013 1084.5,-540.0004 1289.5,-540.0004 1289.5,-594.4013"/>
<text text-anchor="middle" x="1187" y="-579.1009" font-family="Inconsolata" font-size="14.00" fill="#000000">ffi.cdef[[</text>
<text text-anchor="middle" x="1187" y="-563.7009" font-family="Inconsolata" font-size="14.00" fill="#000000"> &#160;&#160;typedef uint64_t time_t;</text>
<text text-anchor="middle" x="1187" y="-548.3009" font-family="Inconsolata" font-size="14.00" fill="#000000">]]</text>
</g>
<!-- codeblock_6&#45;&gt;leaf_18 -->
<g id="edge18" class="edge">
<title>codeblock_6&#45;&gt;leaf_18</title>
<path fill="none" stroke="#000000" stroke-dasharray="5,2" d="M1196.6558,-1079.3441C1195.2181,-1003.0879 1189.6764,-709.1577 1187.7029,-604.482"/>
<polygon fill="#000000" stroke="#000000" points="1191.2005,-604.3156 1187.5125,-594.3834 1184.2017,-604.4476 1191.2005,-604.3156"/>
</g>
<!-- raw_19 -->
<g id="node20" class="node">
<title>raw_19</title>
<ellipse fill="none" stroke="#000000" cx="1335" cy="-567.2009" rx="27" ry="18"/>
<text text-anchor="middle" x="1335" y="-563.0009" font-family="Helvetica,sans-Serif" font-size="14.00" fill="#000000">raw</text>
</g>
<!-- prose_7&#45;&gt;raw_19 -->
<g id="edge19" class="edge">
<title>prose_7&#45;&gt;raw_19</title>
<path fill="none" stroke="#000000" stroke-dasharray="5,2" d="M1330.1721,-1079.3441C1330.9129,-1000.765 1333.8325,-691.0485 1334.7337,-595.4545"/>
<polygon fill="#000000" stroke="#000000" points="1338.2341,-595.4143 1334.8286,-585.3817 1331.2344,-595.3482 1338.2341,-595.4143"/>
</g>
<!-- raw_21 -->
<g id="node22" class="node">
<title>raw_21</title>
<ellipse fill="none" stroke="#000000" cx="1407" cy="-567.2009" rx="27" ry="18"/>
<text text-anchor="middle" x="1407" y="-563.0009" font-family="Helvetica,sans-Serif" font-size="14.00" fill="#000000">raw</text>
</g>
<!-- prose_8&#45;&gt;raw_21 -->
<g id="edge21" class="edge">
<title>prose_8&#45;&gt;raw_21</title>
<path fill="none" stroke="#000000" stroke-dasharray="5,2" d="M1636.2208,-1094.5271C1580.2863,-1088.4122 1467.8059,-1072.7353 1443,-1043.6017 1385.3862,-975.9365 1399.0011,-687.7471 1404.9672,-595.632"/>
<polygon fill="#000000" stroke="#000000" points="1408.4764,-595.6098 1405.6516,-585.3985 1401.492,-595.1426 1408.4764,-595.6098"/>
</g>
<!-- prespace_22 -->
<g id="node23" class="node">
<title>prespace_22</title>
<ellipse fill="none" stroke="#000000" cx="1498" cy="-567.2009" rx="46.4736" ry="18"/>
<text text-anchor="middle" x="1498" y="-563.0009" font-family="Helvetica,sans-Serif" font-size="14.00" fill="#000000">prespace</text>
</g>
<!-- prose_8&#45;&gt;prespace_22 -->
<g id="edge22" class="edge">
<title>prose_8&#45;&gt;prespace_22</title>
<path fill="none" stroke="#000000" stroke-dasharray="5,2" d="M1637.4965,-1091.7623C1610.9288,-1084.9737 1573.6703,-1070.9969 1554,-1043.6017 1452.6391,-902.4341 1479.3193,-674.8463 1492.6442,-595.5404"/>
<polygon fill="#000000" stroke="#000000" points="1496.1497,-595.8114 1494.421,-585.3586 1489.2539,-594.608 1496.1497,-595.8114"/>
</g>
<!-- interpolated_23 -->
<g id="node24" class="node">
<title>interpolated_23</title>
<ellipse fill="none" stroke="#000000" cx="1619" cy="-567.2009" rx="56.1474" ry="18"/>
<text text-anchor="middle" x="1619" y="-563.0009" font-family="Helvetica,sans-Serif" font-size="14.00" fill="#000000">interpolated</text>
</g>
<!-- prose_8&#45;&gt;interpolated_23 -->
<g id="edge23" class="edge">
<title>prose_8&#45;&gt;interpolated_23</title>
<path fill="none" stroke="#000000" stroke-dasharray="5,2" d="M1666.3133,-1079.3441C1659.0539,-1000.765 1630.4414,-691.0485 1621.6102,-595.4545"/>
<polygon fill="#000000" stroke="#000000" points="1625.0848,-595.0173 1620.6796,-585.3817 1618.1144,-595.6613 1625.0848,-595.0173"/>
</g>
<!-- raw_24 -->
<g id="node25" class="node">
<title>raw_24</title>
<ellipse fill="none" stroke="#000000" cx="1720" cy="-567.2009" rx="27" ry="18"/>
<text text-anchor="middle" x="1720" y="-563.0009" font-family="Helvetica,sans-Serif" font-size="14.00" fill="#000000">raw</text>
</g>
<!-- prose_8&#45;&gt;raw_24 -->
<g id="edge24" class="edge">
<title>prose_8&#45;&gt;raw_24</title>
<path fill="none" stroke="#000000" stroke-dasharray="5,2" d="M1674.3034,-1079.8338C1677.7379,-1069.4112 1681.7379,-1055.9112 1684,-1043.6017 1714.8003,-875.9966 1719.3501,-670.5706 1719.9461,-595.9826"/>
<polygon fill="#000000" stroke="#000000" points="1723.4485,-595.5741 1720.0096,-585.5529 1716.4487,-595.5314 1723.4485,-595.5741"/>
</g>
<!-- prespace_25 -->
<g id="node26" class="node">
<title>prespace_25</title>
<ellipse fill="none" stroke="#000000" cx="1811" cy="-567.2009" rx="46.4736" ry="18"/>
<text text-anchor="middle" x="1811" y="-563.0009" font-family="Helvetica,sans-Serif" font-size="14.00" fill="#000000">prespace</text>
</g>
<!-- prose_8&#45;&gt;prespace_25 -->
<g id="edge25" class="edge">
<title>prose_8&#45;&gt;prespace_25</title>
<path fill="none" stroke="#000000" stroke-dasharray="5,2" d="M1695.8238,-1088.1347C1716.0127,-1079.7305 1742.1217,-1065.365 1756,-1043.6017 1849.205,-897.4422 1827.182,-673.9029 1815.7105,-595.5314"/>
<polygon fill="#000000" stroke="#000000" points="1819.1422,-594.8177 1814.1749,-585.4595 1812.2222,-595.8728 1819.1422,-594.8177"/>
</g>
<!-- interpolated_26 -->
<g id="node27" class="node">
<title>interpolated_26</title>
<ellipse fill="none" stroke="#000000" cx="1932" cy="-567.2009" rx="56.1474" ry="18"/>
<text text-anchor="middle" x="1932" y="-563.0009" font-family="Helvetica,sans-Serif" font-size="14.00" fill="#000000">interpolated</text>
</g>
<!-- prose_8&#45;&gt;interpolated_26 -->
<g id="edge26" class="edge">
<title>prose_8&#45;&gt;interpolated_26</title>
<path fill="none" stroke="#000000" stroke-dasharray="5,2" d="M1699.4091,-1093.2797C1749.5131,-1085.7185 1844.1229,-1068.4897 1866,-1043.6017 1981.5402,-912.1599 1952.1314,-676.6185 1937.671,-595.5361"/>
<polygon fill="#000000" stroke="#000000" points="1941.0886,-594.7689 1935.8282,-585.5722 1934.2053,-596.042 1941.0886,-594.7689"/>
</g>
<!-- raw_27 -->
<g id="node28" class="node">
<title>raw_27</title>
<ellipse fill="none" stroke="#000000" cx="2033" cy="-567.2009" rx="27" ry="18"/>
<text text-anchor="middle" x="2033" y="-563.0009" font-family="Helvetica,sans-Serif" font-size="14.00" fill="#000000">raw</text>
</g>
<!-- prose_8&#45;&gt;raw_27 -->
<g id="edge27" class="edge">
<title>prose_8&#45;&gt;raw_27</title>
<path fill="none" stroke="#000000" stroke-dasharray="5,2" d="M1699.871,-1094.602C1778.5283,-1086.8911 1976.9832,-1065.4461 1997,-1043.6017 2057.1074,-978.0064 2041.7553,-687.7958 2035.204,-595.4919"/>
<polygon fill="#000000" stroke="#000000" points="2038.6747,-594.9628 2034.4543,-585.2448 2031.6934,-595.4736 2038.6747,-594.9628"/>
</g>
<!-- raw_35 -->
<g id="node36" class="node">
<title>raw_35</title>
<ellipse fill="none" stroke="#000000" cx="2105" cy="-567.2009" rx="27" ry="18"/>
<text text-anchor="middle" x="2105" y="-563.0009" font-family="Helvetica,sans-Serif" font-size="14.00" fill="#000000">raw</text>
</g>
<!-- prose_9&#45;&gt;raw_35 -->
<g id="edge35" class="edge">
<title>prose_9&#45;&gt;raw_35</title>
<path fill="none" stroke="#000000" stroke-dasharray="5,2" d="M1978.2141,-1092.9488C2006.8919,-1086.8886 2048.0259,-1073.309 2069,-1043.6017 2168.8327,-902.2007 2129.8257,-674.76 2111.9963,-595.5165"/>
<polygon fill="#000000" stroke="#000000" points="2115.3058,-594.294 2109.6377,-585.3428 2108.4866,-595.875 2115.3058,-594.294"/>
</g>
<!-- raw_37 -->
<g id="node38" class="node">
<title>raw_37</title>
<ellipse fill="none" stroke="#000000" cx="2177" cy="-567.2009" rx="27" ry="18"/>
<text text-anchor="middle" x="2177" y="-563.0009" font-family="Helvetica,sans-Serif" font-size="14.00" fill="#000000">raw</text>
</g>
<!-- prose_10&#45;&gt;raw_37 -->
<g id="edge37" class="edge">
<title>prose_10&#45;&gt;raw_37</title>
<path fill="none" stroke="#000000" stroke-dasharray="5,2" d="M2132.477,-1079.7736C2135.4693,-1069.331 2138.9693,-1055.831 2141,-1043.6017 2168.9146,-875.4919 2175.2106,-670.3713 2176.6086,-595.9236"/>
<polygon fill="#000000" stroke="#000000" points="2180.115,-595.5727 2176.7874,-585.5141 2173.1161,-595.4524 2180.115,-595.5727"/>
</g>
<!-- leaf_39 -->
<g id="node40" class="node">
<title>leaf_39</title>
<polygon fill="none" stroke="#c0c0c0" points="2686,-1043.5025 2222,-1043.5025 2222,-90.8992 2686,-90.8992 2686,-1043.5025"/>
<text text-anchor="middle" x="2454" y="-1028.4017" font-family="Inconsolata" font-size="14.00" fill="#000000">ffi.cdef [[</text>
<text text-anchor="middle" x="2454" y="-1013.0017" font-family="Inconsolata" font-size="14.00" fill="#000000"> &#160;&#160;typedef unsigned long &#160;&#160;tcflag_t;</text>
<text text-anchor="middle" x="2454" y="-997.6016" font-family="Inconsolata" font-size="14.00" fill="#000000"> &#160;&#160;typedef unsigned char &#160;&#160;cc_t;</text>
<text text-anchor="middle" x="2454" y="-982.2016" font-family="Inconsolata" font-size="14.00" fill="#000000"> &#160;&#160;typedef unsigned long &#160;&#160;speed_t;</text>
<text text-anchor="middle" x="2454" y="-950.8016" font-family="Inconsolata" font-size="14.00" fill="#000000"> &#160;&#160;struct termios {</text>
<text text-anchor="middle" x="2454" y="-935.4015" font-family="Inconsolata" font-size="14.00" fill="#000000"> &#160;&#160;&#160;&#160;&#160;tcflag_t c_iflag; /* input flags */</text>
<text text-anchor="middle" x="2454" y="-920.0015" font-family="Inconsolata" font-size="14.00" fill="#000000"> &#160;&#160;&#160;&#160;&#160;tcflag_t c_oflag; /* output flags */</text>
<text text-anchor="middle" x="2454" y="-904.6015" font-family="Inconsolata" font-size="14.00" fill="#000000"> &#160;&#160;&#160;&#160;&#160;tcflag_t c_cflag; /* control flags */</text>
<text text-anchor="middle" x="2454" y="-889.2014" font-family="Inconsolata" font-size="14.00" fill="#000000"> &#160;&#160;&#160;&#160;&#160;tcflag_t c_lflag; /* local flags */</text>
<text text-anchor="middle" x="2454" y="-873.8014" font-family="Inconsolata" font-size="14.00" fill="#000000"> &#160;&#160;&#160;&#160;&#160;cc_t &#160;&#160;&#160;&#160;c_cc[20]; /* control chars */</text>
<text text-anchor="middle" x="2454" y="-858.4014" font-family="Inconsolata" font-size="14.00" fill="#000000"> &#160;&#160;&#160;&#160;&#160;speed_t &#160;&#160;&#160;&#160;c_ispeed; &#160;&#160;/* input speed */</text>
<text text-anchor="middle" x="2454" y="-843.0013" font-family="Inconsolata" font-size="14.00" fill="#000000"> &#160;&#160;&#160;&#160;&#160;speed_t &#160;&#160;&#160;&#160;c_ospeed; &#160;&#160;/* output speed */</text>
<text text-anchor="middle" x="2454" y="-827.6013" font-family="Inconsolata" font-size="14.00" fill="#000000"> &#160;&#160;};</text>
<text text-anchor="middle" x="2454" y="-812.2013" font-family="Inconsolata" font-size="14.00" fill="#000000">]]</text>
<text text-anchor="middle" x="2454" y="-780.8012" font-family="Inconsolata" font-size="14.00" fill="#000000">&#45;&#45; &#160;The rest we straight up copy&#45;paste from the header:</text>
<text text-anchor="middle" x="2454" y="-749.4012" font-family="Inconsolata" font-size="14.00" fill="#000000">ffi.cdef [[</text>
<text text-anchor="middle" x="2454" y="-734.0012" font-family="Inconsolata" font-size="14.00" fill="#000000"> &#160;&#160;typedef struct frow {</text>
<text text-anchor="middle" x="2454" y="-718.6012" font-family="Inconsolata" font-size="14.00" fill="#000000"> &#160;&#160;&#160;&#160;int size;</text>
<text text-anchor="middle" x="2454" y="-703.2011" font-family="Inconsolata" font-size="14.00" fill="#000000"> &#160;&#160;&#160;&#160;int rsize;</text>
<text text-anchor="middle" x="2454" y="-687.8011" font-family="Inconsolata" font-size="14.00" fill="#000000"> &#160;&#160;&#160;&#160;char *chars;</text>
<text text-anchor="middle" x="2454" y="-672.4011" font-family="Inconsolata" font-size="14.00" fill="#000000"> &#160;&#160;&#160;&#160;char *render;</text>
<text text-anchor="middle" x="2454" y="-657.001" font-family="Inconsolata" font-size="14.00" fill="#000000"> &#160;&#160;&#160;&#160;unsigned char *hl;</text>
<text text-anchor="middle" x="2454" y="-641.601" font-family="Inconsolata" font-size="14.00" fill="#000000"> &#160;&#160;} frow;</text>
<text text-anchor="middle" x="2454" y="-610.201" font-family="Inconsolata" font-size="14.00" fill="#000000"> &#160;&#160;struct fmConfig {</text>
<text text-anchor="middle" x="2454" y="-594.8009" font-family="Inconsolata" font-size="14.00" fill="#000000"> &#160;&#160;&#160;&#160;int cx, cy;</text>
<text text-anchor="middle" x="2454" y="-579.4009" font-family="Inconsolata" font-size="14.00" fill="#000000"> &#160;&#160;&#160;&#160;int rx;</text>
<text text-anchor="middle" x="2454" y="-564.0009" font-family="Inconsolata" font-size="14.00" fill="#000000"> &#160;&#160;&#160;&#160;int rowoff;</text>
<text text-anchor="middle" x="2454" y="-548.6008" font-family="Inconsolata" font-size="14.00" fill="#000000"> &#160;&#160;&#160;&#160;int coloff;</text>
<text text-anchor="middle" x="2454" y="-533.2008" font-family="Inconsolata" font-size="14.00" fill="#000000"> &#160;&#160;&#160;&#160;int screenrows;</text>
<text text-anchor="middle" x="2454" y="-517.8008" font-family="Inconsolata" font-size="14.00" fill="#000000"> &#160;&#160;&#160;&#160;int screencols;</text>
<text text-anchor="middle" x="2454" y="-502.4007" font-family="Inconsolata" font-size="14.00" fill="#000000"> &#160;&#160;&#160;&#160;int numrows;</text>
<text text-anchor="middle" x="2454" y="-487.0007" font-family="Inconsolata" font-size="14.00" fill="#000000"> &#160;&#160;&#160;&#160;frow *row;</text>
<text text-anchor="middle" x="2454" y="-471.6007" font-family="Inconsolata" font-size="14.00" fill="#000000"> &#160;&#160;&#160;&#160;int dirty;</text>
<text text-anchor="middle" x="2454" y="-456.2007" font-family="Inconsolata" font-size="14.00" fill="#000000"> &#160;&#160;&#160;&#160;char *filename;</text>
<text text-anchor="middle" x="2454" y="-440.8006" font-family="Inconsolata" font-size="14.00" fill="#000000"> &#160;&#160;&#160;&#160;char statusmsg[80];</text>
<text text-anchor="middle" x="2454" y="-425.4006" font-family="Inconsolata" font-size="14.00" fill="#000000"> &#160;&#160;&#160;&#160;time_t statusmsg_time;</text>
<text text-anchor="middle" x="2454" y="-410.0006" font-family="Inconsolata" font-size="14.00" fill="#000000"> &#160;&#160;&#160;&#160;struct termios orig_termios;</text>
<text text-anchor="middle" x="2454" y="-394.6005" font-family="Inconsolata" font-size="14.00" fill="#000000"> &#160;&#160;};</text>
<text text-anchor="middle" x="2454" y="-363.2005" font-family="Inconsolata" font-size="14.00" fill="#000000"> &#160;&#160;struct fmConfig F;</text>
<text text-anchor="middle" x="2454" y="-331.8005" font-family="Inconsolata" font-size="14.00" fill="#000000"> &#160;&#160;struct abuf {</text>
<text text-anchor="middle" x="2454" y="-316.4004" font-family="Inconsolata" font-size="14.00" fill="#000000"> &#160;&#160;&#160;&#160;char *b;</text>
<text text-anchor="middle" x="2454" y="-301.0004" font-family="Inconsolata" font-size="14.00" fill="#000000"> &#160;&#160;&#160;&#160;int len;</text>
<text text-anchor="middle" x="2454" y="-285.6004" font-family="Inconsolata" font-size="14.00" fill="#000000"> &#160;&#160;};</text>
<text text-anchor="middle" x="2454" y="-270.2003" font-family="Inconsolata" font-size="14.00" fill="#000000">]]</text>
<text text-anchor="middle" x="2454" y="-254.8003" font-family="Inconsolata" font-size="14.00" fill="#000000">&#45;&#45; &#160;Including our all&#45;important collection of function pointers:</text>
<text text-anchor="middle" x="2454" y="-223.4003" font-family="Inconsolata" font-size="14.00" fill="#000000">ffi.cdef [[</text>
<text text-anchor="middle" x="2454" y="-208.0002" font-family="Inconsolata" font-size="14.00" fill="#000000">&#45;&#45;INTERPOLATE&lt;build/femto_struct.h&gt;&#45;&#45;</text>
<text text-anchor="middle" x="2454" y="-192.6002" font-family="Inconsolata" font-size="14.00" fill="#000000">]]</text>
<text text-anchor="middle" x="2454" y="-161.2002" font-family="Inconsolata" font-size="14.00" fill="#000000">femto = &quot;&quot;</text>
<text text-anchor="middle" x="2454" y="-129.8002" font-family="Inconsolata" font-size="14.00" fill="#000000">function __mkfemto(fm_struct_pt)</text>
<text text-anchor="middle" x="2454" y="-114.4001" font-family="Inconsolata" font-size="14.00" fill="#000000"> &#160;&#160;femto = ffi.cast(&quot;struct femto_struct *&quot;, fm_struct_pt)</text>
<text text-anchor="middle" x="2454" y="-99.0001" font-family="Inconsolata" font-size="14.00" fill="#000000">end</text>
</g>
<!-- codeblock_11&#45;&gt;leaf_39 -->
<g id="edge39" class="edge">
<title>codeblock_11&#45;&gt;leaf_39</title>
<path fill="none" stroke="#000000" stroke-dasharray="5,2" d="M2383.5128,-1079.3441C2384.4533,-1072.511 2385.6343,-1063.93 2387.0156,-1053.8941"/>
<polygon fill="#000000" stroke="#000000" points="2390.5037,-1054.2196 2388.3999,-1043.8357 2383.569,-1053.2651 2390.5037,-1054.2196"/>
</g>
<!-- leaf_14 -->
<g id="node15" class="node">
<title>leaf_14</title>
<polygon fill="none" stroke="#c0c0c0" points="54,-47.4 0,-47.4 0,-7.4 54,-7.4 54,-47.4"/>
</g>
<!-- raw_13&#45;&gt;leaf_14 -->
<g id="edge14" class="edge">
<title>raw_13&#45;&gt;leaf_14</title>
<path fill="none" stroke="#000000" stroke-dasharray="5,2" d="M506.5766,-549.0406C513.0196,-469.9654 534.0411,-156.6933 469,-90.8001 405.3711,-26.3376 147.4628,-87.5122 63,-54.8001 61.3887,-54.176 59.7884,-53.4568 58.2092,-52.6635"/>
<polygon fill="#000000" stroke="#000000" points="59.8474,-49.5655 49.4648,-47.4552 56.2653,-55.5795 59.8474,-49.5655"/>
</g>
<!-- leaf_17 -->
<g id="node18" class="node">
<title>leaf_17</title>
<polygon fill="none" stroke="#c0c0c0" points="494,-54.7005 72,-54.7005 72,-.0996 494,-.0996 494,-54.7005"/>
<text text-anchor="middle" x="283" y="-23.6001" font-family="Inconsolata" font-size="14.00" fill="#000000">Change this to uint32_t if you&#39;re on a system that expires</text>
<text text-anchor="middle" x="283" y="-8.2" font-family="Inconsolata" font-size="14.00" fill="#000000">in a couple decades.</text>
</g>
<!-- raw_16&#45;&gt;leaf_17 -->
<g id="edge17" class="edge">
<title>raw_16&#45;&gt;leaf_17</title>
<path fill="none" stroke="#000000" stroke-dasharray="5,2" d="M1040.562,-549.0115C1046.9381,-469.8134 1067.6586,-156.0991 1002,-90.8001 964.2788,-53.2854 592.3898,-59.5832 504.147,-54.6417"/>
<polygon fill="#000000" stroke="#000000" points="504.2608,-51.1408 494.0325,-53.9032 503.751,-58.1222 504.2608,-51.1408"/>
</g>
<!-- leaf_20 -->
<g id="node21" class="node">
<title>leaf_20</title>
<polygon fill="none" stroke="#c0c0c0" points="913.5,-47.3021 512.5,-47.3021 512.5,-7.4979 913.5,-7.4979 913.5,-47.3021"/>
<text text-anchor="middle" x="713" y="-15.9" font-family="Inconsolata" font-size="14.00" fill="#000000">The termios struct might well be different for your OS.</text>
</g>
<!-- raw_19&#45;&gt;leaf_20 -->
<g id="edge20" class="edge">
<title>raw_19&#45;&gt;leaf_20</title>
<path fill="none" stroke="#000000" stroke-dasharray="5,2" d="M1336.5238,-549.0494C1342.7391,-470.0112 1362.8806,-156.8721 1298,-90.8001 1268.6723,-60.9338 964.5926,-59.5085 923,-54.8001 905.5836,-52.8284 887.3714,-50.641 869.2639,-48.3864"/>
<polygon fill="#000000" stroke="#000000" points="869.5782,-44.8985 859.2206,-47.1279 868.7078,-51.8442 869.5782,-44.8985"/>
</g>
<!-- leaf_28 -->
<g id="node29" class="node">
<title>leaf_28</title>
<polygon fill="none" stroke="#c0c0c0" points="1396,-54.7005 932,-54.7005 932,-.0996 1396,-.0996 1396,-54.7005"/>
<text text-anchor="middle" x="1164" y="-23.6001" font-family="Inconsolata" font-size="14.00" fill="#000000">To figure out approximately where your system keeps its headers,</text>
<text text-anchor="middle" x="1164" y="-8.2" font-family="Inconsolata" font-size="14.00" fill="#000000">run</text>
</g>
<!-- raw_21&#45;&gt;leaf_28 -->
<g id="edge28" class="edge">
<title>raw_21&#45;&gt;leaf_28</title>
<path fill="none" stroke="#000000" stroke-dasharray="5,2" d="M1412.0705,-549.1132C1430.1374,-480.4522 1484.4412,-232.67 1371,-90.8001 1360.9756,-78.2635 1334.5969,-67.0348 1303.8931,-57.6368"/>
<polygon fill="#000000" stroke="#000000" points="1304.8209,-54.2614 1294.2387,-54.7795 1302.8343,-60.9736 1304.8209,-54.2614"/>
</g>
<!-- leaf_29 -->
<g id="node30" class="node">
<title>leaf_29</title>
<polygon fill="none" stroke="#c0c0c0" points="1468,-45.4 1414,-45.4 1414,-9.4 1468,-9.4 1468,-45.4"/>
<text text-anchor="middle" x="1441" y="-23.9" font-family="Inconsolata" font-size="14.00" fill="#000000"> </text>
</g>
<!-- prespace_22&#45;&gt;leaf_29 -->
<g id="edge29" class="edge">
<title>prespace_22&#45;&gt;leaf_29</title>
<path fill="none" stroke="#000000" stroke-dasharray="5,2" d="M1496.0708,-548.9314C1487.6726,-469.3982 1454.262,-152.9939 1444.0083,-55.8888"/>
<polygon fill="#000000" stroke="#000000" points="1447.4595,-55.2421 1442.9287,-45.6649 1440.4982,-55.9772 1447.4595,-55.2421"/>
</g>
<!-- leaf_30 -->
<g id="node31" class="node">
<title>leaf_30</title>
<polygon fill="none" stroke="#c0c0c0" points="1593.5,-45.4 1486.5,-45.4 1486.5,-9.4 1593.5,-9.4 1593.5,-45.4"/>
<text text-anchor="middle" x="1540" y="-23.9" font-family="Inconsolata" font-size="14.00" fill="#000000">gcc &#45;&#45;version</text>
</g>
<!-- interpolated_23&#45;&gt;leaf_30 -->
<g id="edge30" class="edge">
<title>interpolated_23&#45;&gt;leaf_30</title>
<path fill="none" stroke="#000000" stroke-dasharray="5,2" d="M1616.9038,-548.9623C1609.5191,-485.5059 1583.5048,-268.5582 1553,-90.8001 1551.0126,-79.219 1548.4795,-66.5197 1546.1782,-55.5485"/>
<polygon fill="#000000" stroke="#000000" points="1549.5766,-54.7024 1544.0682,-45.652 1542.7304,-56.162 1549.5766,-54.7024"/>
</g>
<!-- leaf_31 -->
<g id="node32" class="node">
<title>leaf_31</title>
<polygon fill="none" stroke="#c0c0c0" points="1942.5,-46.7006 1611.5,-46.7006 1611.5,-8.0995 1942.5,-8.0995 1942.5,-46.7006"/>
<text text-anchor="middle" x="1777" y="-31.6001" font-family="Inconsolata" font-size="14.00" fill="#000000">. &#160;This path will be overly specific, get off</text>
<text text-anchor="middle" x="1777" y="-16.2" font-family="Inconsolata" font-size="14.00" fill="#000000">the train at</text>
</g>
<!-- raw_24&#45;&gt;leaf_31 -->
<g id="edge31" class="edge">
<title>raw_24&#45;&gt;leaf_31</title>
<path fill="none" stroke="#000000" stroke-dasharray="5,2" d="M1719.7855,-548.8095C1719.3777,-484.854 1720.821,-266.472 1756,-90.8001 1758.2947,-79.341 1762.0377,-67.0777 1765.7328,-56.4195"/>
<polygon fill="#000000" stroke="#000000" points="1769.1121,-57.3657 1769.212,-46.7714 1762.5272,-54.9911 1769.1121,-57.3657"/>
</g>
<!-- leaf_32 -->
<g id="node33" class="node">
<title>leaf_32</title>
<polygon fill="none" stroke="#c0c0c0" points="2015,-45.4 1961,-45.4 1961,-9.4 2015,-9.4 2015,-45.4"/>
<text text-anchor="middle" x="1988" y="-23.9" font-family="Inconsolata" font-size="14.00" fill="#000000"> </text>
</g>
<!-- prespace_25&#45;&gt;leaf_32 -->
<g id="edge32" class="edge">
<title>prespace_25&#45;&gt;leaf_32</title>
<path fill="none" stroke="#000000" stroke-dasharray="5,2" d="M1807.2439,-548.9135C1794.3063,-480.5655 1758.1203,-236.5927 1867,-90.8001 1891.304,-58.2564 1915.7747,-75.0228 1951,-54.8001 1952.915,-53.7007 1954.8475,-52.5195 1956.7715,-51.287"/>
<polygon fill="#000000" stroke="#000000" points="1958.7661,-54.1633 1965.0715,-45.649 1954.8327,-48.3728 1958.7661,-54.1633"/>
</g>
<!-- leaf_33 -->
<g id="node34" class="node">
<title>leaf_33</title>
<polygon fill="none" stroke="#c0c0c0" points="2098.5,-45.4 2033.5,-45.4 2033.5,-9.4 2098.5,-9.4 2098.5,-45.4"/>
<text text-anchor="middle" x="2066" y="-23.9" font-family="Inconsolata" font-size="14.00" fill="#000000">include</text>
</g>
<!-- interpolated_26&#45;&gt;leaf_33 -->
<g id="edge33" class="edge">
<title>interpolated_26&#45;&gt;leaf_33</title>
<path fill="none" stroke="#000000" stroke-dasharray="5,2" d="M1930.2616,-549.0346C1924.7841,-483.0801 1912.8972,-251.7034 1997,-90.8001 2004.8509,-75.78 2017.739,-62.4851 2030.2643,-51.9988"/>
<polygon fill="#000000" stroke="#000000" points="2032.749,-54.4941 2038.3862,-45.5235 2028.3852,-49.0207 2032.749,-54.4941"/>
</g>
<!-- leaf_34 -->
<g id="node35" class="node">
<title>leaf_34</title>
<polygon fill="none" stroke="#c0c0c0" points="2171,-45.4 2117,-45.4 2117,-9.4 2171,-9.4 2171,-45.4"/>
<text text-anchor="middle" x="2144" y="-23.9" font-family="Inconsolata" font-size="14.00" fill="#000000">.</text>
</g>
<!-- raw_27&#45;&gt;leaf_34 -->
<g id="edge34" class="edge">
<title>raw_27&#45;&gt;leaf_34</title>
<path fill="none" stroke="#000000" stroke-dasharray="5,2" d="M2029.6299,-549.0182C2018.332,-483.007 1986.9407,-251.4606 2069,-90.8001 2071.6924,-85.5287 2093.5327,-67.3207 2112.9551,-51.762"/>
<polygon fill="#000000" stroke="#000000" points="2115.1472,-54.4906 2120.789,-45.5228 2110.7862,-49.0151 2115.1472,-54.4906"/>
</g>
<!-- leaf_36 -->
<g id="node37" class="node">
<title>leaf_36</title>
<polygon fill="none" stroke="#c0c0c0" points="2604.5,-54.7005 2189.5,-54.7005 2189.5,-.0996 2604.5,-.0996 2604.5,-54.7005"/>
<text text-anchor="middle" x="2397" y="-23.6001" font-family="Inconsolata" font-size="14.00" fill="#000000">Please submit a patch for your OS! Our build process will</text>
<text text-anchor="middle" x="2397" y="-8.2" font-family="Inconsolata" font-size="14.00" fill="#000000">introduce the necessary metadata eventually.</text>
</g>
<!-- raw_35&#45;&gt;leaf_36 -->
<g id="edge36" class="edge">
<title>raw_35&#45;&gt;leaf_36</title>
<path fill="none" stroke="#000000" stroke-dasharray="5,2" d="M2099.8193,-549.3888C2081.02,-480.6868 2023.4721,-229.8469 2141,-90.8001 2152.366,-77.353 2180.0077,-66.2635 2213.1202,-57.3286"/>
<polygon fill="#000000" stroke="#000000" points="2214.2752,-60.6449 2223.0756,-54.7455 2212.517,-53.8693 2214.2752,-60.6449"/>
</g>
<!-- leaf_38 -->
<g id="node39" class="node">
<title>leaf_38</title>
<polygon fill="none" stroke="#c0c0c0" points="3031,-54.7005 2623,-54.7005 2623,-.0996 3031,-.0996 3031,-54.7005"/>
<text text-anchor="middle" x="2827" y="-23.6001" font-family="Inconsolata" font-size="14.00" fill="#000000">After some rummaging around, I found this for Darwin.</text>
<text text-anchor="middle" x="2827" y="-8.2" font-family="Inconsolata" font-size="14.00" fill="#000000">The magic number 20 is #defined under NCCS in termios.h.</text>
</g>
<!-- raw_37&#45;&gt;leaf_38 -->
<g id="edge38" class="edge">
<title>raw_37&#45;&gt;leaf_38</title>
<path fill="none" stroke="#000000" stroke-dasharray="5,2" d="M2175.4255,-549.0428C2168.9915,-469.9764 2148.0023,-156.7362 2213,-90.8001 2242.7362,-60.6345 2536.4562,-59.6558 2612.5759,-54.5693"/>
<polygon fill="#000000" stroke="#000000" points="2613.176,-58.0315 2622.8505,-53.7126 2612.5943,-51.0557 2613.176,-58.0315"/>
</g>
</g>
</svg>
