<?xml version="1.0" encoding="UTF-8" standalone="no"?>
<!DOCTYPE svg PUBLIC "-//W3C//DTD SVG 1.1//EN"
 "http://www.w3.org/Graphics/SVG/1.1/DTD/svg11.dtd">
<!-- Generated by graphviz version 2.40.1 (20161225.0304)
 -->
<!-- Title: lpegNode Pages: 1 -->
<svg width="325pt" height="332pt"
 viewBox="0.00 0.00 325.12 332.00" xmlns="http://www.w3.org/2000/svg" xmlns:xlink="http://www.w3.org/1999/xlink">
<g id="graph0" class="graph" transform="scale(1 1) rotate(0) translate(4 328)">
<title>lpegNode</title>
<polygon fill="#ffffff" stroke="transparent" points="-4,4 -4,-328 321.1158,-328 321.1158,4 -4,4"/>
<!-- doc_0 -->
<g id="node1" class="node">
<title>doc_0</title>
<ellipse fill="none" stroke="#000000" cx="128.1158" cy="-306" rx="37.2854" ry="18"/>
<text text-anchor="middle" x="128.1158" y="-301.8" font-family="Helvetica,sans-Serif" font-size="14.00" fill="#000000">doc &#45; 5</text>
</g>
<!-- section_1 -->
<g id="node2" class="node">
<title>section_1</title>
<ellipse fill="none" stroke="#000000" cx="128.1158" cy="-234" rx="55.6456" ry="18"/>
<text text-anchor="middle" x="128.1158" y="-229.8" font-family="Helvetica,sans-Serif" font-size="14.00" fill="#000000">section: 1&#45;5</text>
</g>
<!-- doc_0&#45;&gt;section_1 -->
<g id="edge1" class="edge">
<title>doc_0&#45;&gt;section_1</title>
<path fill="none" stroke="#000000" stroke-dasharray="5,2" d="M128.1158,-287.8314C128.1158,-280.131 128.1158,-270.9743 128.1158,-262.4166"/>
<polygon fill="#000000" stroke="#000000" points="131.6159,-262.4132 128.1158,-252.4133 124.6159,-262.4133 131.6159,-262.4132"/>
</g>
<!-- header_2 -->
<g id="node3" class="node">
<title>header_2</title>
<ellipse fill="none" stroke="#000000" cx="39.1158" cy="-162" rx="39.232" ry="18"/>
<text text-anchor="middle" x="39.1158" y="-157.8" font-family="Helvetica,sans-Serif" font-size="14.00" fill="#000000">1 : load</text>
</g>
<!-- section_1&#45;&gt;header_2 -->
<g id="edge2" class="edge">
<title>section_1&#45;&gt;header_2</title>
<path fill="none" stroke="#000000" stroke-dasharray="5,2" d="M107.024,-216.937C94.8495,-207.0879 79.4071,-194.5952 66.3254,-184.0122"/>
<polygon fill="#000000" stroke="#000000" points="68.5114,-181.2788 58.5355,-177.7103 64.1087,-186.7209 68.5114,-181.2788"/>
</g>
<!-- prose_3 -->
<g id="node4" class="node">
<title>prose_3</title>
<ellipse fill="none" stroke="#000000" cx="128.1158" cy="-162" rx="32.4585" ry="18"/>
<text text-anchor="middle" x="128.1158" y="-157.8" font-family="Helvetica,sans-Serif" font-size="14.00" fill="#000000">prose</text>
</g>
<!-- section_1&#45;&gt;prose_3 -->
<g id="edge3" class="edge">
<title>section_1&#45;&gt;prose_3</title>
<path fill="none" stroke="#000000" stroke-dasharray="5,2" d="M128.1158,-215.8314C128.1158,-208.131 128.1158,-198.9743 128.1158,-190.4166"/>
<polygon fill="#000000" stroke="#000000" points="131.6159,-190.4132 128.1158,-180.4133 124.6159,-190.4133 131.6159,-190.4132"/>
</g>
<!-- codeblock_4 -->
<g id="node5" class="node">
<title>codeblock_4</title>
<ellipse fill="none" stroke="#000000" cx="246.1158" cy="-162" rx="67.748" ry="18"/>
<text text-anchor="middle" x="246.1158" y="-157.8" font-family="Helvetica,sans-Serif" font-size="14.00" fill="#000000">code block 3&#45;5</text>
</g>
<!-- section_1&#45;&gt;codeblock_4 -->
<g id="edge4" class="edge">
<title>section_1&#45;&gt;codeblock_4</title>
<path fill="none" stroke="#000000" stroke-dasharray="5,2" d="M154.3038,-218.0209C170.7585,-207.9807 192.2057,-194.8943 210.2328,-183.8947"/>
<polygon fill="#000000" stroke="#000000" points="212.0575,-186.8815 218.7708,-178.6851 208.4114,-180.906 212.0575,-186.8815"/>
</g>
<!-- leaf_5 -->
<g id="node6" class="node">
<title>leaf_5</title>
<polygon fill="none" stroke="#c0c0c0" points="68.1158,-108 10.1158,-108 10.1158,-72 68.1158,-72 68.1158,-108"/>
<text text-anchor="middle" x="39.1158" y="-86.5" font-family="Inconsolata" font-size="14.00" fill="#000000">* load</text>
</g>
<!-- header_2&#45;&gt;leaf_5 -->
<g id="edge5" class="edge">
<title>header_2&#45;&gt;leaf_5</title>
<path fill="none" stroke="#000000" stroke-dasharray="5,2" d="M39.1158,-143.8314C39.1158,-136.131 39.1158,-126.9743 39.1158,-118.4166"/>
<polygon fill="#000000" stroke="#000000" points="42.6159,-118.4132 39.1158,-108.4133 35.6159,-118.4133 42.6159,-118.4132"/>
</g>
<!-- raw_6 -->
<g id="node7" class="node">
<title>raw_6</title>
<ellipse fill="none" stroke="#000000" cx="128.1158" cy="-90" rx="27" ry="18"/>
<text text-anchor="middle" x="128.1158" y="-85.8" font-family="Helvetica,sans-Serif" font-size="14.00" fill="#000000">raw</text>
</g>
<!-- prose_3&#45;&gt;raw_6 -->
<g id="edge6" class="edge">
<title>prose_3&#45;&gt;raw_6</title>
<path fill="none" stroke="#000000" stroke-dasharray="5,2" d="M128.1158,-143.8314C128.1158,-136.131 128.1158,-126.9743 128.1158,-118.4166"/>
<polygon fill="#000000" stroke="#000000" points="131.6159,-118.4132 128.1158,-108.4133 124.6159,-118.4133 131.6159,-118.4132"/>
</g>
<!-- leaf_8 -->
<g id="node9" class="node">
<title>leaf_8</title>
<polygon fill="none" stroke="#c0c0c0" points="317.1158,-108 175.1158,-108 175.1158,-72 317.1158,-72 317.1158,-108"/>
<text text-anchor="middle" x="246.1158" y="-86.5" font-family="Inconsolata" font-size="14.00" fill="#000000">require &quot;your mom&quot;</text>
</g>
<!-- codeblock_4&#45;&gt;leaf_8 -->
<g id="edge8" class="edge">
<title>codeblock_4&#45;&gt;leaf_8</title>
<path fill="none" stroke="#000000" stroke-dasharray="5,2" d="M246.1158,-143.8314C246.1158,-136.131 246.1158,-126.9743 246.1158,-118.4166"/>
<polygon fill="#000000" stroke="#000000" points="249.6159,-118.4132 246.1158,-108.4133 242.6159,-118.4133 249.6159,-118.4132"/>
</g>
<!-- leaf_7 -->
<g id="node8" class="node">
<title>leaf_7</title>
<polygon fill="none" stroke="#c0c0c0" points="155.1158,-36 101.1158,-36 101.1158,0 155.1158,0 155.1158,-36"/>
</g>
<!-- raw_6&#45;&gt;leaf_7 -->
<g id="edge7" class="edge">
<title>raw_6&#45;&gt;leaf_7</title>
<path fill="none" stroke="#000000" stroke-dasharray="5,2" d="M128.1158,-71.8314C128.1158,-64.131 128.1158,-54.9743 128.1158,-46.4166"/>
<polygon fill="#000000" stroke="#000000" points="131.6159,-46.4132 128.1158,-36.4133 124.6159,-46.4133 131.6159,-46.4132"/>
</g>
</g>
</svg>
